<?xml version="1.0" standalone="no"?>
<svg version="1.1" id="Layer_1" xmlns="http://www.w3.org/2000/svg" xmlns:xlink="http://www.w3.org/1999/xlink" x="0px" y="0px" viewBox="0 0 595.276 595.276" enable-background="new 0 0 595.276 595.276" xml:space="preserve">
<path id="color_x5F_7_35_" fill="#fcc3a2" d="M197.712,287.015c6.46,6.081,16.902,14.216,25.076,18.809
	c-0.814,1.446-1.566,2.893-2.244,4.333c-2.731,1.681-4.558,4.689-4.558,8.131v22.135l-26.204-26.204
	C190.966,304.943,193.869,295.724,197.712,287.015z M190.414,335.264c1.837,8.731,7.456,17.074,15.183,24.813
	c3.15,3.155,6.648,6.211,10.389,9.15v-26.265l-26.459-26.46C188.92,322.798,189.117,329.1,190.414,335.264z M416.042,312.844
	l-26.013,26.014v30.369c3.741-2.939,7.239-5.994,10.389-9.15c7.727-7.739,13.346-16.082,15.183-24.813
	C417.148,327.905,417.137,320.351,416.042,312.844z M390.028,336.317l25.67-25.67c-1.408-8.066-4.047-16.042-7.397-23.632
	c-6.46,6.081-16.902,14.216-25.076,18.809c0.814,1.446,1.566,2.893,2.245,4.333c2.731,1.681,4.558,4.689,4.558,8.131V336.317z
	 M309.198,228.557c-1.766,0.223-2.94,0.312-6.089,0.312c-3.15,0-4.645-0.089-6.411-0.312c-2.604-0.329-6.666-2.975-10.49-6.122
	l-0.269,4.373c0,7.85,7.642,22.779,17.069,22.779c9.427,0,17.069-14.93,17.069-22.779l-0.275-4.465
	C315.944,225.531,311.828,228.225,309.198,228.557z M303.768,189.942c0-0.261,0.039-0.488,0.055-0.736h-2.539
	c0.016,0.248,0.055,0.475,0.055,0.736c0,7.575-6.782,13.737-15.121,13.737c-2.089,0-4.079-0.387-5.891-1.086
	c2.63,2.799,5.792,4.685,8.456,3.031c2.122-1.296,5.61-2.118,9.476-2.485c0.132,3.949,2.171,5.899,4.689,5.899
	c2.518,0,4.557-1.95,4.689-5.899c3.866,0.367,7.354,1.189,9.476,2.485c2.843,1.766,6.252-0.5,8.977-3.604
	c-2.142,1.058-4.595,1.66-7.2,1.66C310.551,203.68,303.768,197.517,303.768,189.942z M329.716,190.43
	c0,5.868-4.858,10.643-10.827,10.643c-5.969,0-10.827-4.775-10.827-10.643c0-3.856,1.841-6.423,10.827-6.423
	C327.875,184.007,329.716,186.574,329.716,190.43z M327.192,194.977c0-1.893-2.574-0.212-5.917,0.556
	c0.569-0.399,0.942-0.934,0.942-1.625c0-3.267-1.806-5.916-4.033-5.916c-2.227,0-4.033,2.649-4.033,5.916
	c0,0.51,0.213,0.932,0.546,1.283c-2.547-0.808-4.247-1.854-4.247-0.214c0,2.379,3.748,5.12,8.371,5.12
	C323.444,200.098,327.192,197.356,327.192,194.977z M328.986,169.085c1.676,2.617,3.322,5.049,4.462,7.821
	c-0.24,2.232-0.565,5.055-0.942,7.841c-3.207-4.62-10.71-4.642-13.617-4.642c-3.181,0-11.865,0.023-14.398,6.075h-3.876
	c-2.532-6.052-11.216-6.075-14.398-6.075c-2.718,0-9.452,0.019-12.941,3.793c-0.152-1.156-0.294-2.306-0.425-3.408
	c0.364-3.995,1.236-9.162,3.339-11.405c0.319-1.022,0.537-2.134,0.692-3.264c18.474,5.873,41.216-12.155,51.244-6.246
	C328.134,162.602,327.643,166.989,328.986,169.085z M280.604,178.742c-0.327-0.506,13.26,1.406,15.141,2.064
	C303.467,174.618,277.922,174.59,280.604,178.742z M310.15,180.806c1.881-0.658,15.468-2.57,15.141-2.064
	C327.973,174.59,302.429,174.618,310.15,180.806z M286.218,201.073c-5.969,0-10.827-4.775-10.827-10.643
	c0-3.856,1.841-6.423,10.827-6.423c8.986,0,10.827,2.567,10.827,6.423C297.044,196.298,292.187,201.073,286.218,201.073z
	 M286.31,200.098c4.623,0,8.371-2.741,8.371-5.12c0-1.32-1.254-0.899-3.147-0.263c0.123-0.245,0.21-0.507,0.21-0.806
	c0-3.267-1.806-5.916-4.033-5.916c-2.228,0-4.033,2.649-4.033,5.916c0,0.874,0.585,1.506,1.43,1.913
	c-4.085-0.392-7.17-3.053-7.17-0.844C277.939,197.356,281.687,200.098,286.31,200.098z M304.201,216.079
	c3.071-0.458,5.716-2.435,6.274-5.6c0.216-1.228-1.663-1.755-1.881-0.518c-0.464,2.632-2.695,4.033-5.249,4.268
	c-1.764,0.162-4.902,0.098-6.078-1.559c-0.721-1.016-2.413-0.042-1.684,0.984C297.4,216.217,301.316,216.509,304.201,216.079z"></path>
<path id="color_x5F_6_41_" fill="#4980c2" d="M444.971,379.636c-0.075,5.327-1.524,10.408-4.103,15.253
	c-5.329,10.012-15.543,19.001-28.71,27.018l-22.13-22.13v-18.721c9.291-2.505,19.415-2.515,29.049-2.403
	c1.104,0.013,1.102-1.701,0-1.713c-9.671-0.112-19.746-0.047-29.049,2.378v-1.177c5.024-1.743,10.322-2.748,15.763-2.942
	c1.101-0.039,1.103-1.753,0-1.713c-5.44,0.194-10.731,1.171-15.763,2.856v-7.114c3.741-2.939,7.239-5.994,10.389-9.15
	C425.512,363.539,445.093,370.887,444.971,379.636z M390.028,402.318v3.491c0,4.219-2.739,7.792-6.533,9.057v2.818h-1.899
	c1.015,1.031,1.645,2.443,1.645,4.004v0c0,3.154-2.557,5.711-5.711,5.711h-69.902v34.732c37.891,8.607,68.251,12.656,68.251,12.656
	s1.603-3.108,3.339-7.565c2.246-5.763,4.709-13.782,4.232-20.292c-0.039-0.527-0.09-1.047-0.168-1.552
	c-4.896-0.75-10.01-1.818-15.279-3.125c15.621-5.668,30.303-12.119,42.573-19.388L390.028,402.318z M235.009,442.979
	c0.162-0.036,0.39-0.093,0.646-0.16c-4.437,1.047-8.761,1.921-12.922,2.559c-0.079,0.505-0.13,1.025-0.168,1.552
	c-0.478,6.51,1.986,14.528,4.231,20.292c1.737,4.457,3.339,7.565,3.339,7.565s16.908-2.254,41.236-6.975
	c-0.9,0.165-1.415,0.258-1.415,0.258S260.189,451.776,235.009,442.979z M215.986,380.308c-8.404-1.753-17.348-1.755-25.905-1.655
	c-1.105,0.013-1.102-1.701,0-1.713c8.59-0.1,17.501-0.066,25.905,1.642v-1.43c-4.073-1.137-8.301-1.8-12.619-1.954
	c-1.101-0.039-1.103-1.753,0-1.713c4.318,0.154,8.542,0.801,12.619,1.901v-6.159c-3.742-2.939-7.239-5.994-10.389-9.15
	c-25.095,3.462-44.675,10.81-44.553,19.558c0.075,5.327,1.524,10.408,4.103,15.253c1.813,3.406,4.201,6.691,7.067,9.863h43.772
	V380.308z M222.773,421.689L222.773,421.689c0-1.561,0.629-2.974,1.645-4.004h-1.899v-2.818c-3.57-1.19-6.196-4.425-6.495-8.318
	h-42.118c13.881,14.232,37.571,26.065,63.971,35.655c21.212,7.706,44.152,13.968,65.132,18.864c0.948,0.221,1.884,0.435,2.823,0.651
	V427.4h-77.348C225.329,427.4,222.773,424.843,222.773,421.689z M265.432,197.781c2.469,0,4.53-1.656,5.195-3.91
	c0.076-0.257,0.133-0.52,0.171-0.791c0.034-0.244,0.075-0.486,0.075-0.739c0,0-0.015-23.539-0.016-23.594
	c-0.022-0.731-0.182-1.424-0.465-2.055c-0.089-0.2-0.199-0.387-0.311-0.573c-0.474-0.788-1.138-1.437-1.934-1.899
	c-0.624-0.362-1.321-0.597-2.07-0.686c-0.214-0.026-0.423-0.065-0.644-0.065c-0.219,0-0.428,0.039-0.64,0.065
	c-1.547,0.184-2.893,0.999-3.762,2.202c-0.151,0.208-0.276,0.432-0.396,0.662c-0.396,0.755-0.641,1.6-0.641,2.512v23.432
	c0,0.911,0.245,1.757,0.641,2.511C261.543,196.585,263.339,197.781,265.432,197.781z M340.582,197.781
	c2.093,0,3.889-1.195,4.798-2.928c0.396-0.755,0.641-1.6,0.641-2.511v-23.432c0-0.911-0.245-1.757-0.641-2.512
	c-0.12-0.229-0.246-0.453-0.396-0.662c-0.869-1.203-2.214-2.018-3.762-2.202c-0.213-0.025-0.421-0.065-0.64-0.065
	c-0.221,0-0.43,0.039-0.644,0.065c-0.749,0.089-1.446,0.324-2.07,0.686c-0.869,0.504-1.577,1.236-2.055,2.122
	c-0.414,0.768-0.671,1.633-0.671,2.566v23.432c0,0.348,0.04,0.686,0.102,1.016C335.722,195.874,337.926,197.781,340.582,197.781z
	 M383.488,321.727c0-0.001,0-0.002,0-0.003c-0.021-1.421-0.608-2.704-1.546-3.633c-0.014-0.014-0.032-0.024-0.047-0.038
	c-0.222-0.215-0.46-0.414-0.718-0.587c-0.075-0.051-0.162-0.084-0.24-0.13c-0.207-0.124-0.413-0.249-0.638-0.343
	c-0.158-0.066-0.329-0.103-0.494-0.153c-0.159-0.049-0.312-0.113-0.478-0.147c-0.338-0.069-0.687-0.105-1.045-0.105H227.731
	c-0.358,0-0.708,0.037-1.045,0.105c-0.162,0.033-0.311,0.096-0.467,0.144c-0.169,0.051-0.344,0.089-0.505,0.157
	c-0.223,0.094-0.429,0.219-0.635,0.342c-0.079,0.047-0.167,0.081-0.243,0.132c-0.255,0.171-0.49,0.368-0.71,0.58
	c-0.017,0.016-0.038,0.028-0.055,0.045c-0.937,0.927-1.523,2.208-1.545,3.626c0,0.003-0.001,0.006-0.001,0.009h0H383.488z"></path>
<path id="color_x5F_5_41_" fill="#ffffff" d="M277.939,194.977c0-2.209,3.085,0.452,7.17,0.844c0.314,0.03,0.633,0.05,0.958,0.05
	c2.025,0,3.952-0.647,5.469-1.157c1.892-0.636,3.147-1.058,3.147,0.263c0,2.379-3.748,5.12-8.371,5.12
	C281.687,200.098,277.939,197.356,277.939,194.977z M327.192,194.977c0-1.893-2.574-0.212-5.917,0.556
	c-0.859,0.198-1.767,0.338-2.698,0.338c-1.414,0-2.733-0.316-3.88-0.68c-2.547-0.808-4.247-1.854-4.247-0.214
	c0,2.379,3.748,5.12,8.371,5.12C323.444,200.098,327.192,197.356,327.192,194.977z M481.371,324.315
	c14.903,0,27.028,12.124,27.028,27.028c0,14.903-12.124,27.028-27.028,27.028c-14.904,0-27.028-12.125-27.028-27.028
	C454.343,336.44,466.468,324.315,481.371,324.315z M458.201,342.334h9.68c1.029-6.047,2.636-10.992,3.698-13.844
	C465.472,331.116,460.625,336.123,458.201,342.334z M457.87,359.451h9.356c-0.57-5.248-0.318-10.361,0.322-14.955h-10.076
	c-0.625,2.177-0.966,4.472-0.966,6.847C456.505,354.182,456.99,356.908,457.87,359.451z M471.285,374.063
	c-1.96-4.071-3.142-8.283-3.777-12.449h-8.773C461.253,367.141,465.733,371.589,471.285,374.063z M480.29,361.613h-10.559
	c0.713,4.591,2.132,9.208,4.563,13.563c1.913,0.569,3.921,0.915,5.995,1.004V361.613z M480.29,344.496h-10.479
	c-0.659,4.593-0.939,9.721-0.367,14.955h10.846V344.496z M480.29,326.505c-2.077,0.089-4.087,0.436-6.002,1.006
	c-0.795,1.975-2.872,7.576-4.134,14.823h10.136V326.505z M504.007,361.613h-8.607c-0.631,4.135-1.81,8.316-3.745,12.359
	C497.115,371.482,501.52,367.075,504.007,361.613z M505.27,344.496h-9.913c0.641,4.594,0.9,9.707,0.33,14.955h9.185
	c0.88-2.543,1.365-5.27,1.365-8.108C506.237,348.968,505.895,346.673,505.27,344.496z M491.355,328.577
	c1.062,2.866,2.65,7.777,3.667,13.757h9.518C502.143,336.189,497.371,331.226,491.355,328.577z M482.452,342.334h10.296
	c-1.253-7.193-3.306-12.758-4.114-14.772c-1.969-0.603-4.041-0.965-6.182-1.057V342.334z M482.452,359.451h11.005
	c0.572-5.234,0.292-10.362-0.367-14.955h-10.639V359.451z M482.452,376.181c2.142-0.092,4.214-0.455,6.183-1.058
	c2.413-4.339,3.825-8.937,4.535-13.51h-10.718V376.181z M121.878,356.69c0-1.427-1.157-2.585-2.585-2.585
	c-1.428,0-2.585,1.157-2.585,2.585v3.66h5.17V356.69z M116.708,384.261c0,1.427,1.157,2.585,2.585,2.585
	c1.427,0,2.585-1.157,2.585-2.585v-21.47h-5.17V384.261z M154.876,202.222l-9.666,14.06h9.281l4.833-7.034L154.876,202.222z
	 M168.799,197.014l-8.391,12.235l-4.834,7.034h25.399L168.799,197.014z M139.884,187.382h47.109v34.456h-47.109V187.382z
	 M144.556,217.166h37.766v-25.112h-37.766V217.166z M149.793,200.504c1.613,0,2.92-1.307,2.92-2.92c0-1.613-1.307-2.92-2.92-2.92
	c-1.613,0-2.92,1.307-2.92,2.92C146.874,199.196,148.181,200.504,149.793,200.504z M459.442,171.043
	c1.078,0.472,2.027,1.213,2.749,2.159c0.447,0.586,1.272,0.732,1.928,0.395c0.874-0.449,1.134-1.587,0.533-2.364
	c-1.03-1.33-2.371-2.376-3.892-3.052c-0.897-0.399-1.938,0.126-2.165,1.081l0,0.001
	C458.424,169.981,458.765,170.746,459.442,171.043z M439.73,190.275c-5.086,4.809-6.936,6.298-12.022,11.107
	c-1.113,1.041-0.932,3.061,0.462,4.454c1.393,1.394,3.413,1.575,4.454,0.462c4.809-5.086,6.382-6.852,11.191-11.939
	c0.646-0.691,0.861-1.627,0.671-2.5l-2.256-2.257C441.358,189.414,440.421,189.628,439.73,190.275z M444.861,191.448
	c0.576,0.576,1.51,0.576,2.086,0l0.547-0.547c0.249-0.25,0.37-0.569,0.403-0.895c-0.765-0.519-1.497-1.11-2.175-1.789
	c-0.68-0.68-1.274-1.413-1.793-2.181c-0.326,0.033-0.646,0.154-0.896,0.404l-0.547,0.547c-0.576,0.576-0.576,1.51,0,2.086
	l0.06,0.059l2.256,2.257L444.861,191.448z M448.493,189.571c-0.766-0.519-1.497-1.11-2.175-1.788
	c-0.68-0.68-1.273-1.413-1.793-2.181c-3.9-5.756-3.307-13.64,1.793-18.74c5.775-5.775,15.135-5.775,20.916,0.006
	c5.775,5.775,5.775,15.135,0,20.91C462.132,192.878,454.245,193.47,448.493,189.571z M448.435,185.665
	c4.605,4.605,12.07,4.605,16.68-0.006c4.604-4.604,4.599-12.064-0.006-16.668c-4.604-4.604-12.064-4.61-16.668-0.006
	C443.831,173.595,443.831,181.06,448.435,185.665z M417.514,112.118c0,7.01-12.693,26.686-12.693,26.686
	s-12.692-19.676-12.692-26.686c0-7.01,5.682-12.692,12.692-12.692C411.831,99.426,417.514,105.108,417.514,112.118z
	 M412.457,112.118c0-4.217-3.418-7.635-7.635-7.635c-4.216,0-7.635,3.419-7.635,7.635c0,4.217,3.419,7.635,7.635,7.635
	C409.038,119.753,412.457,116.335,412.457,112.118z M404.821,106.573c-3.062,0-5.544,2.482-5.544,5.545
	c0,3.062,2.483,5.544,5.544,5.544c3.062,0,5.545-2.482,5.545-5.544C410.366,109.056,407.884,106.573,404.821,106.573z
	 M517.347,247.146v15.882l9.552,14.684l-15.128-8.973h-53.826c-2.584,0-4.687-2.103-4.687-4.688v-16.905
	c0-2.584,2.103-4.688,4.687-4.688h54.714C515.244,242.459,517.347,244.562,517.347,247.146z M514.789,263.787v-16.641
	c0-1.174-0.956-2.13-2.13-2.13h-54.714c-1.174,0-2.13,0.956-2.13,2.13v16.905c0,1.173,0.956,2.13,2.13,2.13h54.529l6.31,3.744
	L514.789,263.787z M470.92,252.609c-1.783,0-3.228,1.445-3.228,3.227c0,1.783,1.445,3.227,3.228,3.227
	c1.782,0,3.227-1.444,3.227-3.227C474.147,254.054,472.702,252.609,470.92,252.609z M484.319,252.609
	c-1.783,0-3.227,1.445-3.227,3.227c0,1.783,1.444,3.227,3.227,3.227c1.783,0,3.228-1.444,3.228-3.227
	C487.546,254.054,486.101,252.609,484.319,252.609z M497.718,252.609c-1.783,0-3.227,1.445-3.227,3.227
	c0,1.783,1.444,3.227,3.227,3.227c1.782,0,3.227-1.444,3.227-3.227C500.945,254.054,499.5,252.609,497.718,252.609z
	 M204.007,497.384c-2.701-0.419-5.23,1.431-5.649,4.132c-0.102,0.655-0.065,1.299,0.081,1.907l-13.672,6.862
	c-0.748-1.015-1.88-1.747-3.225-1.956c-2.701-0.419-5.23,1.431-5.649,4.132c-0.419,2.701,1.431,5.23,4.132,5.649
	c1.444,0.224,2.828-0.215,3.877-1.072l11.241,9.771c-0.322,0.535-0.552,1.137-0.654,1.792c-0.419,2.701,1.431,5.23,4.132,5.649
	c2.701,0.419,5.23-1.431,5.649-4.132c0.419-2.701-1.431-5.23-4.132-5.649c-1.451-0.225-2.84,0.219-3.891,1.084l-11.236-9.766
	c0.327-0.539,0.56-1.147,0.662-1.809c0.118-0.761,0.04-1.501-0.171-2.191l13.608-6.83c0.74,1.141,1.929,1.984,3.378,2.208
	c2.701,0.419,5.23-1.431,5.649-4.132C208.558,500.332,206.708,497.803,204.007,497.384z M379.79,174.287v16.14h-4.742l7.018,7.966
	l7.018-7.018h-4.445v-17.088H379.79z M404.332,198.393v-17.088h4.445l-7.018-7.018l-7.018,7.967h4.742v16.139H404.332z
	 M199.502,128.671c-0.295,1.269-0.774,2.464-1.411,3.559l1.284,1.284c0.627,0.627,0.627,1.643,0,2.27l-2.314,2.314
	c-0.627,0.627-1.643,0.627-2.27,0l-1.251-1.251c-1.124,0.673-2.36,1.173-3.672,1.481v1.695c0,0.887-0.719,1.605-1.605,1.605h-3.273
	c-0.887,0-1.605-0.719-1.605-1.605v-1.817c-1.268-0.352-2.46-0.896-3.543-1.603l-1.299,1.299c-0.627,0.627-1.643,0.627-2.27,0
	l-2.314-2.314c-0.627-0.627-0.627-1.643,0-2.27l1.495-1.495c-0.569-1.066-0.984-2.218-1.23-3.428h-2.19
	c-0.887,0-1.605-0.719-1.605-1.605v-3.273c0-0.887,0.719-1.605,1.605-1.605h2.5c0.336-1.089,0.803-2.12,1.397-3.066l-1.777-1.777
	c-0.627-0.627-0.627-1.644,0-2.27l2.314-2.314c0.627-0.627,1.643-0.627,2.27,0l1.919,1.919c0.937-0.518,1.943-0.92,3.004-1.193
	v-2.651c0-0.887,0.719-1.605,1.605-1.605h3.273c0.886,0,1.605,0.719,1.605,1.605v2.62c1.092,0.277,2.129,0.704,3.094,1.248
	l1.748-1.748c0.627-0.627,1.643-0.627,2.27,0l2.314,2.314c0.627,0.627,0.627,1.644,0,2.27l-1.644,1.644
	c0.628,1.011,1.111,2.115,1.438,3.279h2.131c0.887,0,1.605,0.719,1.605,1.605v3.273c0,0.887-0.719,1.605-1.605,1.605H199.502z
	 M185.284,117.639c-3.248,0.614-5.867,3.233-6.481,6.481c-1.099,5.814,3.895,10.808,9.709,9.709
	c3.248-0.614,5.867-3.233,6.481-6.481C196.093,121.534,191.098,116.539,185.284,117.639z M212.991,121.305
	c1.108-0.612,2.297-1.087,3.551-1.411v-3.133c0-1.048,0.85-1.898,1.898-1.898h3.869c1.048,0,1.898,0.85,1.898,1.898v3.098
	c1.291,0.328,2.516,0.833,3.658,1.475l2.067-2.067c0.741-0.741,1.943-0.741,2.684,0l2.736,2.736c0.741,0.741,0.741,1.943,0,2.684
	l-1.944,1.944c0.742,1.195,1.314,2.5,1.7,3.876h2.52c1.048,0,1.898,0.85,1.898,1.898v3.869c0,1.048-0.85,1.898-1.898,1.898h-2.356
	c-0.348,1.5-0.915,2.912-1.668,4.207l1.518,1.518c0.741,0.741,0.741,1.943,0,2.684l-2.736,2.736c-0.741,0.741-1.943,0.741-2.684,0
	l-1.479-1.479c-1.329,0.795-2.79,1.386-4.341,1.751v2.004c0,1.048-0.85,1.898-1.898,1.898h-3.869c-1.048,0-1.898-0.85-1.898-1.898
	v-2.147c-1.498-0.417-2.907-1.06-4.188-1.895l-1.536,1.536c-0.741,0.741-1.943,0.741-2.684,0l-2.736-2.736
	c-0.741-0.741-0.741-1.943,0-2.684l1.768-1.768c-0.672-1.26-1.163-2.622-1.454-4.052h-2.589c-1.048,0-1.898-0.85-1.898-1.898v-3.869
	c0-1.048,0.85-1.898,1.898-1.898h2.955c0.397-1.288,0.948-2.506,1.651-3.624l-2.1-2.1c-0.741-0.741-0.741-1.943,0-2.684l2.736-2.736
	c0.741-0.741,1.943-0.741,2.684,0L212.991,121.305z M210.803,132.79c-1.3,6.872,4.604,12.776,11.477,11.477
	c3.839-0.726,6.935-3.822,7.661-7.661c1.3-6.872-4.605-12.777-11.477-11.477C214.625,125.854,211.529,128.95,210.803,132.79z
	 M68.641,368.407c-3.344,1.803-6.687,3.606-10.031,5.409c-1.282,0.691-1.282,2.711,0,3.402c3.344,1.803,6.687,3.606,10.031,5.409
	c2.232,1.204,4.224-2.197,1.989-3.402c-2.292-1.236-4.584-2.472-6.876-3.708c2.292-1.236,4.584-2.472,6.876-3.708
	C72.863,370.605,70.875,367.202,68.641,368.407z M85.782,382.628c3.344-1.803,6.687-3.606,10.031-5.409
	c1.282-0.691,1.282-2.711,0-3.402c-3.343-1.803-6.687-3.606-10.031-5.409c-2.232-1.204-4.224,2.197-1.989,3.402
	c2.292,1.236,4.584,2.472,6.876,3.708c-2.292,1.236-4.584,2.472-6.876,3.708C81.561,380.429,83.548,383.832,85.782,382.628z
	 M78.333,364.354c-2.014,7.093-4.028,14.185-6.042,21.278c-0.694,2.444,3.107,3.487,3.8,1.048
	c2.014-7.093,4.028-14.185,6.042-21.278C82.826,362.958,79.025,361.915,78.333,364.354z M307.628,427.4h-1.797v125.316h1.797V427.4z
	 M379.328,316.693c-0.338-0.069-0.687-0.105-1.045-0.105H227.731c-0.358,0-0.708,0.037-1.045,0.105
	c-0.162,0.033-0.311,0.096-0.467,0.144c-0.169,0.051-0.344,0.089-0.505,0.157c-0.223,0.094-0.428,0.219-0.635,0.342
	c-0.079,0.047-0.167,0.081-0.243,0.132c-0.255,0.171-0.489,0.368-0.71,0.58c-0.017,0.016-0.038,0.028-0.055,0.045
	c-0.939,0.927-1.523,2.208-1.545,3.626c0,0.003-0.001,0.006-0.001,0.009h0c0,0.025-0.007,0.048-0.007,0.073v93.066
	c-3.57-1.19-6.196-4.425-6.495-8.318h-73.92v34.739l-33.392,33.392v-2.54l31.596-31.596v-35.791h75.678v-61.789l-77.224-77.224
	H45.643v19.589l-1.795,0.005v-21.389h95.658l76.48,76.48v-22.135c0-3.442,1.827-6.45,4.558-8.131
	c1.454-0.895,3.16-1.421,4.993-1.421h46.968l-71.125-71.125h-98.598v-80.895h1.795v79.1h97.546l72.921,72.921h27.317
	c0.165-4.75,0.45-7.816,0.901-8.267c0.863-0.863,86.795-86.795,88.069-88.069v-47.142L309.005,82.93c-0.356,0-0.713,0-1.07,0v-7.787
	l8.892-8.892V56.176c-3.144-0.866-5.463-3.744-5.463-7.16c0-4.099,3.335-7.433,7.433-7.433c4.098,0,7.433,3.334,7.433,7.433
	c0,3.416-2.319,6.293-5.463,7.16v11.707l-8.892,8.892v6.156c-0.11,0-0.22,0-0.331,0l81.586,81.585v48.628l-0.263,0.263
	c0,0-86.659,86.658-88.251,88.251c-0.253,0.699-0.419,3.246-0.518,7.079h42.607l109.755-109.755h43.675v-44.35l1.797,0.005v46.14
	h-44.727L349.244,308.737h31.233c1.833,0,3.539,0.525,4.993,1.421c2.731,1.681,4.558,4.689,4.558,8.131v18.029l46.171-46.17h98.986
	v1.795h-98.241l-46.915,46.916v60.919l63.491,63.491h20.268v1.797h-21.013l-62.746-62.746v3.491c0,4.219-2.739,7.792-6.533,9.057
	V321.8c0-0.025-0.007-0.048-0.007-0.073c0-0.001,0-0.002,0-0.003c-0.021-1.421-0.605-2.704-1.546-3.633
	c-0.014-0.014-0.032-0.024-0.047-0.038c-0.223-0.215-0.46-0.414-0.718-0.587c-0.075-0.051-0.162-0.084-0.24-0.13
	c-0.207-0.124-0.413-0.249-0.638-0.343c-0.158-0.066-0.329-0.103-0.494-0.153C379.646,316.791,379.494,316.727,379.328,316.693z
	 M318.829,52.518c1.929-0.016,3.48-1.592,3.465-3.522c-0.015-1.929-1.592-3.481-3.521-3.465c-1.929,0.016-3.48,1.592-3.465,3.522
	C315.323,50.982,316.9,52.534,318.829,52.518z M303.007,364.557c-4.889,0-8.852,3.963-8.852,8.852c0,4.888,3.963,8.851,8.852,8.851
	c4.888,0,8.851-3.963,8.851-8.851C311.858,368.52,307.896,364.557,303.007,364.557z M549.228,270.998h22.982
	c1.047,0,1.899,0.975,1.899,2.174v7.841c0,1.199-0.852,2.174-1.899,2.174h-22.622l-6.127,4.163l3.869-6.812v-7.366
	C547.329,271.973,548.181,270.998,549.228,270.998z M572.21,272.184h-22.982c-0.476,0-0.863,0.444-0.863,0.988v7.719l-1.618,2.847
	l2.556-1.737h22.907c0.476,0,0.863-0.443,0.863-0.988v-7.841C573.073,272.628,572.685,272.184,572.21,272.184z M582.944,298.56
	v-7.543c0-0.873-0.618-1.581-1.381-1.581h-22.088c-0.762,0-1.38,0.708-1.38,1.581v7.842c0,0.873,0.618,1.581,1.38,1.581h21.871
	l4.341,2.95L582.944,298.56z M543.46,321.827l3.869-6.812v-7.366c0-1.199,0.852-2.174,1.899-2.174h22.982
	c1.047,0,1.899,0.975,1.899,2.174v7.841c0,1.199-0.852,2.174-1.899,2.174h-22.622L543.46,321.827z M546.747,318.214l2.556-1.736
	h22.907c0.476,0,0.863-0.444,0.863-0.988v-7.841c0-0.544-0.387-0.988-0.863-0.988h-22.982c-0.476,0-0.863,0.444-0.863,0.988v7.719
	L546.747,318.214z M585.687,337.866l-2.743-4.829v-7.543c0-0.873-0.618-1.581-1.381-1.581h-22.088c-0.762,0-1.38,0.708-1.38,1.581
	v7.842c0,0.873,0.618,1.581,1.38,1.581h21.871L585.687,337.866z M566.636,257.846c0-0.776-0.629-1.406-1.405-1.406
	c-0.777,0-1.406,0.629-1.406,1.406c0,0.776,0.629,1.406,1.406,1.406C566.007,259.252,566.636,258.622,566.636,257.846z
	 M561.951,351.757c0,1.811,1.468,3.28,3.28,3.28c1.811,0,3.28-1.468,3.28-3.28c0-1.811-1.468-3.28-3.28-3.28
	C563.419,348.477,561.951,349.946,561.951,351.757z M261.558,493.846c0.967,0.085,1.841-0.614,1.945-1.604
	c0.102-0.989-0.603-1.876-1.575-1.981c-26.641-2.851-29.442,19.803-29.467,20.033c-0.109,0.989,0.591,1.881,1.562,1.991
	c0.067,0.008,0.133,0.012,0.199,0.012c0.889,0,1.655-0.681,1.755-1.603C236.062,509.901,238.362,491.338,261.558,493.846z
	 M261.498,503.112c0.977,0.095,1.842-0.615,1.944-1.604c0.102-0.989-0.603-1.876-1.575-1.981
	c-18.939-2.016-20.948,14.173-20.965,14.337c-0.109,0.989,0.591,1.88,1.562,1.991c0.066,0.008,0.133,0.011,0.199,0.011
	c0.889,0,1.655-0.681,1.755-1.602C244.476,513.739,246.006,501.445,261.498,503.112z M261.67,509.723
	c0.102-0.99-0.603-1.876-1.575-1.981c-8.47-0.897-11.382,4.936-11.734,8.153c-0.108,0.983,0.584,1.864,1.548,1.982
	c0.071,0.009,0.142,0.013,0.211,0.013c0.879,0,1.641-0.672,1.755-1.581c0.074-0.587,0.909-5.727,7.85-4.981
	C260.694,511.423,261.566,510.713,261.67,509.723z M344.086,490.257c-0.972,0.105-1.677,0.992-1.575,1.981
	c0.103,0.991,0.992,1.699,1.944,1.604c23.079-2.475,25.491,16.05,25.583,16.851c0.102,0.919,0.867,1.598,1.755,1.598
	c0.066,0,0.131-0.003,0.199-0.011c0.971-0.11,1.669-1.002,1.562-1.991C373.528,510.061,370.729,487.414,344.086,490.257z
	 M344.147,499.522c-0.972,0.105-1.677,0.992-1.575,1.981c0.102,0.988,0.974,1.692,1.945,1.604
	c15.407-1.661,17.017,10.634,17.081,11.158c0.104,0.918,0.867,1.596,1.755,1.596c0.065,0,0.131-0.004,0.199-0.011
	c0.971-0.11,1.669-1.002,1.562-1.991C365.094,513.695,363.092,497.497,344.147,499.522z M345.918,507.738
	c-0.972,0.105-1.676,0.992-1.575,1.981c0.103,0.989,0.965,1.701,1.944,1.604c6.918-0.742,7.773,4.379,7.849,4.978
	c0.107,0.915,0.869,1.59,1.755,1.59c0.066,0,0.131-0.004,0.199-0.012c0.971-0.11,1.669-1.001,1.562-1.991
	C357.301,512.674,354.391,506.832,345.918,507.738z M262.319,566.52c-1.605,0-2.906,1.301-2.906,2.906
	c0,1.605,1.301,2.906,2.906,2.906s2.906-1.301,2.906-2.906C265.225,567.821,263.924,566.52,262.319,566.52z M273.944,566.52
	c-1.605,0-2.906,1.301-2.906,2.906c0,1.605,1.301,2.906,2.906,2.906c1.605,0,2.906-1.301,2.906-2.906
	C276.85,567.821,275.549,566.52,273.944,566.52z M308.82,566.52c-1.605,0-2.906,1.301-2.906,2.906c0,1.605,1.301,2.906,2.906,2.906
	s2.906-1.301,2.906-2.906C311.726,567.821,310.425,566.52,308.82,566.52z M332.07,566.52c-1.605,0-2.906,1.301-2.906,2.906
	c0,1.605,1.301,2.906,2.906,2.906c1.605,0,2.906-1.301,2.906-2.906C334.976,567.821,333.675,566.52,332.07,566.52z M295.713,31.586
	c0-4.098,3.335-7.432,7.433-7.432c4.098,0,7.433,3.334,7.433,7.432c0,3.416-2.319,6.293-5.463,7.159V82.93c-1.316,0-2.631,0-3.94,0
	V38.745C298.032,37.879,295.713,35.001,295.713,31.586z M299.653,31.586c0,1.926,1.567,3.493,3.493,3.493
	c1.926,0,3.493-1.567,3.493-3.493s-1.567-3.493-3.493-3.493C301.219,28.094,299.653,29.66,299.653,31.586z M279.785,49.016
	c0-4.099,3.334-7.433,7.433-7.433c4.098,0,7.433,3.334,7.433,7.433c0,3.416-2.319,6.293-5.463,7.16v10.075l8.892,8.892v7.787
	c-1.327,0-2.642,0-3.94,0v-6.156l-8.892-8.892V56.176C282.104,55.31,279.785,52.431,279.785,49.016z M283.726,49.056
	c0.017,1.929,1.594,3.48,3.523,3.464c1.929-0.017,3.479-1.594,3.463-3.524c-0.016-1.929-1.593-3.48-3.523-3.464
	C285.26,45.549,283.71,47.126,283.726,49.056z M80.821,447.838h19.556c0.398,0,0.722,0.325,0.722,0.723v14.559H80.099v-14.559
	C80.099,448.162,80.422,447.838,80.821,447.838z M95.127,456.501c0,1.52,2.363,1.523,2.363,0c0-1.313,0-2.625,0-3.938
	c0-1.52-2.363-1.523-2.363,0C95.127,453.876,95.127,455.189,95.127,456.501z M83.708,456.501c0,1.52,2.363,1.523,2.363,0
	c0-1.313,0-2.625,0-3.938c0-1.52-2.363-1.523-2.363,0C83.708,453.876,83.708,455.189,83.708,456.501z M78.585,467.15
	c-0.65,0-1.177,0.527-1.177,1.177v45.232c0,0.65,0.527,1.177,1.177,1.177h0.306c0.65,0,1.177-0.527,1.177-1.177v-45.232
	c0-0.65-0.527-1.177-1.177-1.177H78.585z M131.509,297.053c2.083,0,1.042,0,3.125,0c6.042,0,6.033-9.067,0-9.067
	c-8.056,0-16.112,0-24.167,0c-6.042,0-6.033,9.067,0,9.067c2.847,0,5.695,0,8.542,0c4.271,0,4.063,5.44,0,5.44
	c-0.66,0-1.319,0-1.979,0c-6.042,0-6.032,9.067,0,9.067c6.563,0,8.646,0,15.209,0c5.625,0,5,7.052,0,7.052c-2.917,0-1.354,0-4.271,0
	c-6.043,0-6.033,9.067,0,9.067c6.875,0,13.75,0,20.625,0c6.042,0,6.345-9.067,0.313-9.067c-2.813,0-5.208-0.302-5.208-3.526
	c0-3.022,2.188-3.526,5.208-3.526c2.847,0,2.882,0,5.729,0c6.042,0,6.033-9.067,0-9.067c-8.75,0-14.375,0-23.126,0
	C128.279,302.493,128.279,297.053,131.509,297.053z M148.801,287.986c-6.043,0-6.033,9.067,0,9.067
	C154.843,297.053,154.833,287.986,148.801,287.986z M103.799,311.56c6.043,0,6.033-9.067,0-9.067
	C97.757,302.493,97.767,311.56,103.799,311.56z M128.696,339.466c6.043,0,6.033-9.067,0-9.067
	C122.654,330.399,122.664,339.466,128.696,339.466z"></path>
<path id="color_x5F_4_38_" fill="#ffba53" d="M144.279,353.087v-2.648c-1.684-0.306-3.506,0.8-4.64,2.185
	c-1.303,1.592-2.12,3.567-3.594,5.002c-1.417,1.38-3.403,2.158-5.381,2.109c-1.978-0.049-3.922-0.926-5.269-2.375
	c-1.003-1.079-1.66-2.425-2.465-3.659c-0.805-1.234-1.84-2.418-3.239-2.879c-1.923-0.634-4.093,0.297-5.454,1.796
	c-1.361,1.499-2.067,3.469-2.656,5.406c-0.204,0.669-0.406,1.342-0.619,2.011v32.781c0,1.144,0.927,2.072,2.071,2.072h29.172
	c1.144,0,2.072-0.927,2.072-2.072v-6.1c8.398-0.999,14.934-8.152,14.934-16.814C159.213,361.24,152.677,354.086,144.279,353.087z
	 M121.878,384.261c0,1.427-1.157,2.585-2.585,2.585c-1.428,0-2.585-1.157-2.585-2.585v-21.47h5.17V384.261z M121.878,360.35h-5.17
	v-3.66c0-1.427,1.157-2.585,2.585-2.585c1.427,0,2.585,1.157,2.585,2.585V360.35z M144.279,379.751v-19.699
	c4.582,0.934,8.041,4.995,8.041,9.849C152.32,374.756,148.861,378.817,144.279,379.751z M376.176,227.558
	c-4.149-4.996-9.313-10.41-9.579-10.523c-9.196-3.929-21.746-6.836-35.291-8.484c-0.728,1.68-1.509,3.184-2.358,4.458
	c-1.092,1.642-3.281,4.035-5.873,6.455c1.119,2.628,2.238,5.256,3.358,7.883c0.427,1.004-1.049,1.876-1.479,0.865
	c-1.07-2.512-2.14-5.024-3.21-7.537c-0.636,0.565-1.283,1.123-1.943,1.669l0.275,4.465c0,7.85-7.642,22.779-17.069,22.779
	c-9.427,0-17.069-14.93-17.069-22.779l0.269-4.373c-1.007-0.829-1.996-1.689-2.939-2.554c-0.374,1.706-0.728,3.418-1.053,5.137
	c-0.205,1.084-1.856,0.622-1.652-0.456c0.383-2.024,0.812-4.035,1.262-6.041c-2.153-2.088-3.928-4.085-4.878-5.514
	c-0.846-1.271-1.625-2.77-2.351-4.444c-13.501,1.65-26.007,4.552-35.178,8.47c-0.266,0.114-14.642,16.417-25.622,30.453
	l61.25,61.249h27.317c0.165-4.75,0.45-7.816,0.901-8.267C304.126,299.607,367.338,236.396,376.176,227.558z M313.703,251.312
	c-3.689,4.732-19.75,9.657-30.005-13.716c-0.509-0.978,1.083-1.894,1.479-0.865c6.849,17.814,21.839,19.955,27.047,13.716
	C312.931,249.6,314.382,250.441,313.703,251.312z M212.682,248.913c-11.064,14.208-21.436,28.492-20.948,31.004
	c0.237,1.222,2.551,3.872,5.978,7.098c6.46,6.081,16.902,14.216,25.076,18.809c2.316,1.301,4.441,2.31,6.247,2.912h5.029
	c0.074-0.068,0.165-0.116,0.229-0.196c1.476-1.844,4.562-6.758,8.15-12.717c0.435,4.328,0.883,8.648,1.333,12.913h28.729
	L212.682,248.913z M234.343,302.872c-10.808-4.043-20.544-10.112-28.914-18.056c-0.802-0.761,0.412-1.97,1.211-1.211
	c8.157,7.741,17.626,13.675,28.158,17.615C235.823,301.604,235.377,303.259,234.343,302.872z M362.088,293.352l-15.385,15.385
	h-42.607c0.099-3.834,0.266-6.38,0.518-7.079c1.592-1.592,63.488-63.488,72.711-72.711c6.254,7.572,14.572,17.963,21.741,27.427
	L362.088,293.352z M400.158,257.822l-37.119,37.119l-13.795,13.795h12.993c0.451-4.265,0.898-8.585,1.333-12.913
	c3.588,5.958,6.674,10.873,8.15,12.717c0.064,0.08,0.155,0.128,0.229,0.196h5.029c1.806-0.603,3.932-1.611,6.247-2.912
	c8.174-4.593,18.616-12.728,25.076-18.809c3.427-3.226,5.741-5.876,5.978-7.098C414.665,277.937,408.291,268.631,400.158,257.822z
	 M401.678,284.776c-7.409,8.691-16.813,15.096-27.59,18.867c-1.044,0.365-1.489-1.29-0.456-1.652
	c10.505-3.676,19.616-9.959,26.834-18.426C401.183,282.724,402.39,283.941,401.678,284.776z M261.03,165.735
	c0.534-3.52,1.458-6.882,2.733-10.009c5.345-13.109,16.69-22.175,29.79-22.175h18.907c12.773,0,23.869,8.624,29.37,21.205
	c1.487,3.401,2.563,7.091,3.154,10.979c-0.869-1.203-2.214-2.018-3.762-2.202c-3.845-16.32-15.641-28.236-29.562-28.236h-17.307
	c-13.921,0-25.717,11.916-29.562,28.236C263.244,163.717,261.899,164.533,261.03,165.735z M339.938,163.534
	c-0.749,0.089-1.446,0.324-2.07,0.686c-3.04-13.982-13.276-25.648-25.408-25.648h-18.907c-11.296,0-20.951,10.113-24.682,22.792
	c-0.276,0.939-0.517,1.892-0.726,2.856c-0.624-0.362-1.321-0.597-2.07-0.686c3.776-15.619,15.024-26.98,28.278-26.98h17.307
	C324.914,136.553,336.162,147.915,339.938,163.534z M252.951,186.407v-11.564c0-2.543,1.903-4.841,4.443-4.953
	c0.265-0.012,0.52,0.015,0.774,0.046c-0.203,0.739-0.319,1.544-0.319,2.39v16.598c0,0.847,0.116,1.652,0.319,2.39
	c-0.254,0.031-0.509,0.058-0.774,0.046C254.854,191.248,252.951,188.95,252.951,186.407z M348.165,188.924v-16.598
	c0-0.847-0.116-1.652-0.319-2.39c0.254-0.031,0.509-0.057,0.774-0.046c2.541,0.112,4.443,2.41,4.443,4.953v11.564
	c0,2.543-1.903,4.841-4.443,4.953c-0.265,0.012-0.52-0.015-0.774-0.046C348.049,190.575,348.165,189.77,348.165,188.924z"></path>
<path id="color_x5F_3_42_" fill="#04334c" d="M110.964,348.362h33.315v2.078c-1.684-0.306-3.506,0.8-4.64,2.185
	c-1.303,1.592-2.12,3.567-3.594,5.002c-1.417,1.38-3.403,2.158-5.381,2.109c-1.978-0.049-3.922-0.926-5.269-2.375
	c-1.003-1.079-1.66-2.425-2.465-3.659c-0.805-1.234-1.84-2.418-3.239-2.879c-1.923-0.634-4.093,0.297-5.454,1.796
	c-1.361,1.499-2.067,3.469-2.656,5.406c-0.204,0.669-0.406,1.342-0.619,2.011V348.362z M222.564,446.931l-17.026,1.026
	c0.153,1.683-9.607,17.649-15.328,28.819c-3.14,6.131-5.067,10.822-3.461,10.903c1.824,0.092,11.543-4.89,22.658-10.903
	c5.725-3.097,11.809-6.461,17.389-9.554C224.55,461.459,222.087,453.44,222.564,446.931z M269.956,468.07
	c0,0,0.516-0.093,1.415-0.258c5.068-0.931,22.553-4.209,31.636-6.744c0.001,0,0.001-0.001,0.001-0.001
	c-20.98-4.896-43.92-11.158-65.132-18.864c-0.92,0.264-2.705,0.74-2.867,0.776C260.189,451.776,269.956,468.07,269.956,468.07z
	 M383.45,446.931c0.478,6.51-1.986,14.528-4.232,20.292c16.412,9.098,37.284,20.596,40.047,20.457
	c4.532-0.229-19.027-37.116-18.79-39.723L383.45,446.931z M190.08,378.653c8.558-0.099,17.501-0.098,25.905,1.655v-1.726
	c-8.404-1.708-17.316-1.742-25.905-1.642C188.979,376.952,188.976,378.665,190.08,378.653z M203.367,375.198
	c4.318,0.154,8.546,0.817,12.619,1.954v-1.766c-4.077-1.1-8.301-1.748-12.619-1.901
	C202.264,373.446,202.266,375.159,203.367,375.198z M419.078,376.94c-9.671-0.112-19.746-0.047-29.049,2.378v1.738
	c9.291-2.505,19.415-2.515,29.049-2.403C420.182,378.665,420.179,376.952,419.078,376.94z M390.028,378.141
	c5.024-1.743,10.322-2.748,15.763-2.942c1.101-0.039,1.103-1.753,0-1.713c-5.44,0.194-10.731,1.171-15.763,2.856V378.141z
	 M234.343,302.872c1.034,0.387,1.48-1.268,0.455-1.652c-10.532-3.94-20.001-9.875-28.158-17.615c-0.8-0.759-2.013,0.451-1.211,1.211
	C213.799,292.76,223.535,298.829,234.343,302.872z M374.089,303.643c10.777-3.771,20.181-10.175,27.59-18.867
	c0.712-0.835-0.495-2.052-1.211-1.211c-7.218,8.467-16.329,14.75-26.834,18.426C372.599,302.352,373.044,304.008,374.089,303.643z
	 M312.224,250.447c-5.207,6.239-20.198,4.097-27.047-13.716c-0.396-1.03-1.989-0.113-1.479,0.865
	c10.255,23.374,26.316,18.448,30.005,13.716C314.382,250.441,312.931,249.6,312.224,250.447z M263.763,155.726
	c5.345-13.109,16.69-22.175,29.79-22.175h18.907c12.773,0,23.869,8.624,29.37,21.205c-0.226-10.024-4.215-21.14-20.369-22.527
	c-8.821-10.689-19.742-1.695-26.52-8.022c-2.125-1.983-3.073,3.758-0.256,5.907c-11.597-1.935-11.564,2.316-20.591-0.222
	c-3.136-0.882-0.073,4.405-0.651,4.449c-11.513,0.867-9.983-4.081-11.523-3.492s-2.668,8.774,0.024,12.25
	c-1.769,3.068-5.426-1.549-2.625,4.71C260.692,150.88,262.181,153.498,263.763,155.726z M280.604,178.742
	c-0.327-0.506,13.26,1.406,15.141,2.064C303.467,174.618,277.922,174.59,280.604,178.742z M310.15,180.806
	c1.881-0.658,15.468-2.57,15.141-2.064C327.973,174.59,302.429,174.618,310.15,180.806z M323.075,219.464
	c1.119,2.628,2.238,5.256,3.358,7.883c0.427,1.004-1.049,1.876-1.479,0.865c-1.07-2.512-2.14-5.024-3.21-7.537
	c-0.636,0.565-1.283,1.123-1.943,1.669c-3.857,3.187-7.973,5.881-10.603,6.213c-1.766,0.223-2.94,0.312-6.089,0.312
	c-3.15,0-4.645-0.089-6.411-0.312c-2.604-0.329-6.666-2.975-10.49-6.122c-1.007-0.829-1.996-1.689-2.939-2.554
	c-0.374,1.706-0.728,3.418-1.053,5.137c-0.205,1.084-1.856,0.622-1.652-0.456c0.383-2.024,0.812-4.035,1.262-6.041
	c-2.153-2.088-3.928-4.085-4.878-5.514c-0.846-1.271-1.625-2.77-2.351-4.444c-1.468-3.387-2.702-7.554-3.706-12.428
	c-0.008-0.103-0.024-0.573-0.045-1.323c-0.014-0.47,0.027-25.904,0.027-25.904c0-0.055-0.015-0.107-0.016-0.162
	c-0.022-0.731-0.182-1.424-0.465-2.055c-0.089-0.2-0.199-0.387-0.311-0.573c-0.474-0.788-1.138-1.437-1.934-1.899
	c0.209-0.964,0.45-1.917,0.726-2.856c3.731-12.679,13.386-22.792,24.682-22.792h18.907c12.132,0,22.368,11.667,25.408,25.648
	c-0.869,0.504-1.577,1.236-2.055,2.122c-0.414,0.768-0.671,1.633-0.671,2.566v22.825c-0.02,0.711-0.038,1.355-0.055,1.92
	c-0.042,1.43-0.071,2.348-0.082,2.483c-1.002,4.868-2.234,9.03-3.7,12.415c-0.728,1.68-1.509,3.184-2.358,4.458
	C327.856,214.65,325.668,217.044,323.075,219.464z M329.716,190.43c0-3.856-1.841-6.423-10.827-6.423
	c-8.986,0-10.827,2.567-10.827,6.423c0,5.868,4.858,10.643,10.827,10.643C324.858,201.073,329.716,196.298,329.716,190.43z
	 M286.218,180.105c3.181,0,11.865,0.023,14.398,6.075h3.876c2.532-6.052,11.216-6.075,14.398-6.075
	c2.907,0,10.41,0.022,13.617,4.642c0.377-2.786,0.702-5.609,0.942-7.841c-1.14-2.772-2.786-5.204-4.462-7.821
	c-1.343-2.097-0.852-6.483-0.86-9.509c-10.028-5.909-32.77,12.118-51.244,6.246c-0.155,1.13-0.372,2.241-0.692,3.264
	c-2.102,2.243-2.975,7.41-3.339,11.405c0.13,1.102,0.273,2.252,0.425,3.408C276.766,180.125,283.5,180.105,286.218,180.105z
	 M286.218,201.073c5.969,0,10.827-4.775,10.827-10.643c0-3.856-1.841-6.423-10.827-6.423c-8.986,0-10.827,2.567-10.827,6.423
	C275.391,196.298,280.249,201.073,286.218,201.073z M310.475,210.48c0.216-1.228-1.663-1.755-1.881-0.518
	c-0.464,2.632-2.695,4.033-5.249,4.268c-1.764,0.162-4.902,0.098-6.078-1.559c-0.721-1.016-2.413-0.042-1.684,0.984
	c1.818,2.562,5.734,2.855,8.619,2.425C307.272,215.622,309.917,213.645,310.475,210.48z M326.089,202.02
	c-2.142,1.058-4.595,1.66-7.2,1.66c-8.338,0-15.121-6.162-15.121-13.737c0-0.261,0.039-0.488,0.055-0.736h-2.539
	c0.016,0.248,0.055,0.475,0.055,0.736c0,7.575-6.782,13.737-15.121,13.737c-2.089,0-4.079-0.387-5.891-1.086
	c2.63,2.799,5.792,4.685,8.456,3.031c2.122-1.296,5.61-2.118,9.476-2.485c0.132,3.949,2.171,5.899,4.689,5.899
	c2.518,0,4.557-1.95,4.689-5.899c3.866,0.367,7.354,1.189,9.476,2.485C319.955,207.39,323.365,205.124,326.089,202.02z
	 M318.184,187.992c-2.227,0-4.033,2.649-4.033,5.916c0,0.51,0.213,0.932,0.546,1.283c1.148,0.364,2.467,0.68,3.88,0.68
	c0.931,0,1.838-0.14,2.698-0.338c0.569-0.399,0.942-0.934,0.942-1.625C322.217,190.641,320.411,187.992,318.184,187.992z
	 M291.745,193.908c0-3.267-1.806-5.916-4.033-5.916c-2.228,0-4.033,2.649-4.033,5.916c0,0.874,0.585,1.506,1.43,1.913
	c0.314,0.03,0.633,0.05,0.958,0.05c2.025,0,3.952-0.647,5.469-1.157C291.658,194.47,291.745,194.207,291.745,193.908z
	 M340.582,163.469c0.219,0,0.428,0.039,0.64,0.065c-3.845-16.32-15.641-28.236-29.562-28.236h-17.307
	c-13.921,0-25.717,11.916-29.562,28.236c0.213-0.025,0.421-0.065,0.64-0.065c0.221,0,0.43,0.039,0.644,0.065
	c3.776-15.619,15.024-26.98,28.278-26.98h17.307c13.253,0,24.502,11.362,28.278,26.98
	C340.152,163.508,340.362,163.469,340.582,163.469z M260.634,194.852c-0.396-0.755-0.641-1.6-0.641-2.511v-23.432
	c0-0.911,0.245-1.757,0.641-2.512c-1.118,0.62-2.016,1.9-2.466,3.538c-0.203,0.739-0.319,1.544-0.319,2.39v16.598
	c0,0.847,0.116,1.652,0.319,2.39C258.617,192.952,259.515,194.232,260.634,194.852z M346.022,192.341
	c0,0.911-0.245,1.757-0.641,2.511c1.118-0.62,2.016-1.9,2.466-3.538c0.203-0.739,0.319-1.543,0.319-2.39v-16.598
	c0-0.847-0.116-1.652-0.319-2.39c-0.449-1.638-1.347-2.919-2.466-3.538c0.396,0.755,0.641,1.6,0.641,2.512V192.341z M377.531,427.4
	H228.483c-3.154,0-5.71-2.557-5.71-5.711v0c0-1.561,0.629-2.974,1.645-4.004h-1.899c0,0,0.007-95.932,0.007-95.957h160.963
	c0,0.025,0.007,95.957,0.007,95.957h-1.899c1.015,1.031,1.645,2.443,1.645,4.004v0C383.242,424.843,380.685,427.4,377.531,427.4z
	 M311.858,373.409c0-4.889-3.963-8.852-8.851-8.852c-4.889,0-8.852,3.963-8.852,8.852c0,4.888,3.963,8.851,8.852,8.851
	C307.896,382.26,311.858,378.297,311.858,373.409z M595.276,258.764v93.95c0,2.217-1.797,4.015-4.015,4.015H539.2
	c-2.217,0-4.015-1.798-4.015-4.015v-93.95c0-2.217,1.798-4.015,4.015-4.015h52.061C593.478,254.749,595.276,256.546,595.276,258.764
	z M563.825,257.846c0,0.776,0.629,1.406,1.406,1.406c0.776,0,1.405-0.63,1.405-1.406c0-0.776-0.629-1.406-1.405-1.406
	C564.454,256.441,563.825,257.07,563.825,257.846z M568.51,351.757c0-1.811-1.468-3.28-3.28-3.28c-1.811,0-3.28,1.468-3.28,3.28
	c0,1.811,1.468,3.28,3.28,3.28C567.042,355.037,568.51,353.568,568.51,351.757z M589.655,262.999c0-0.844-0.684-1.527-1.528-1.527
	h-45.794c-0.844,0-1.527,0.684-1.527,1.527v82.865c0,0.844,0.684,1.527,1.527,1.527h45.794c0.844,0,1.528-0.684,1.528-1.527V262.999
	z M551.219,458.375v32.485c0,0.657-0.312,1.275-0.842,1.665c-0.36,0.267-0.791,0.404-1.228,0.404
	c-0.205,0-21.334-6.508-21.334-6.508v8.107c0,1.144-0.927,2.069-2.07,2.069h-49.888c-1.143,0-2.07-0.926-2.07-2.069v-40.69
	c0-1.144,0.926-2.069,2.07-2.069h49.888c0.999,0,1.832,0.707,2.026,1.649c0.028,0.136,0.043,9.474,0.043,9.474l20.716-6.491
	c0.626-0.202,1.313-0.083,1.843,0.307C550.905,457.098,551.219,457.716,551.219,458.375z M523.676,460.448
	c0-2.507-2.033-4.54-4.54-4.54h-36.67c-2.507,0-4.54,2.033-4.54,4.54v27.472c0,2.507,2.032,4.54,4.54,4.54h36.67
	c2.507,0,4.54-2.033,4.54-4.54V460.448z M547.08,461.193l-19.227,6.025l-0.035,14.874l19.262,5.962V461.193z M493.114,484.36
	l19.885-10.177l-19.885-10.177V484.36z M358.733,562.085v13.281c0,5.166-3.526,9.368-7.861,9.368h-95.73
	c-4.335,0-7.861-4.202-7.861-9.368v-13.281c0-5.166,3.526-9.369,7.861-9.369h21.221l-18.695-29.021
	c-1.073-1.664-0.618-3.899,1.017-4.991c1.632-1.093,3.828-0.629,4.899,1.036l21.229,32.954c0.005,0.007,0.004,0.015,0.008,0.022
	h36.374c0.004-0.007,0.003-0.015,0.008-0.022l21.229-32.954c1.071-1.663,3.263-2.129,4.9-1.036c1.633,1.092,2.089,3.327,1.016,4.991
	l-18.695,29.021h21.221C355.207,552.715,358.733,556.919,358.733,562.085z M355.194,562.085c0-2.841-1.938-5.152-4.322-5.152h-95.73
	c-2.383,0-4.323,2.311-4.323,5.152v13.281c0,2.84,1.939,5.151,4.323,5.151h95.73c2.384,0,4.322-2.311,4.322-5.151V562.085z
	 M72.435,332.863l-1.926-6.497c-0.853-2.876-48.222-2.751-49.059,0.129l-1.892,6.507c-0.476,1.636-1.346,3.059-2.474,4.205
	c-2.162,2.195-5.288,3.35-8.522,2.886c-5.324-0.762-9.086-5.608-8.504-10.955l2.194-20.187c0.964-8.871,6.259-16.302,13.632-20.331
	c3.74-2.043,8.004-3.228,12.529-3.248l34.913-0.092c13.449-0.01,24.762,10.079,26.286,23.441l2.3,20.175
	c0.609,5.344-3.127,10.209-8.447,10.999h0C78.552,340.627,73.848,337.628,72.435,332.863z M38.807,305.407
	c-0.109-2.325-2.216-4.061-4.544-4.055l-4.708,0.012c-0.023,0-0.041-0.018-0.041-0.041l-0.012-4.707
	c-0.006-2.328-1.753-4.426-4.079-4.522c-2.441-0.101-4.447,1.85-4.441,4.267l0.013,4.985c0,0.023-0.018,0.041-0.041,0.041
	l-4.708,0.012c-2.328,0.006-4.426,1.753-4.522,4.079c-0.101,2.44,1.851,4.447,4.267,4.441l4.985-0.013
	c0.023,0,0.041,0.018,0.041,0.041l0.012,4.708c0.006,2.327,1.753,4.426,4.079,4.522c2.44,0.101,4.447-1.851,4.441-4.267
	l-0.013-4.985c0-0.023,0.018-0.041,0.041-0.041l4.985-0.013C36.98,309.864,38.921,307.847,38.807,305.407z M61.853,305.664
	c-0.007-2.564-2.09-4.636-4.654-4.63c-2.564,0.007-4.636,2.09-4.63,4.654c0.007,2.564,2.09,4.636,4.654,4.63
	C59.787,310.311,61.86,308.228,61.853,305.664z M61.917,296.291c0.007,2.564,2.09,4.636,4.654,4.63
	c2.564-0.007,4.636-2.09,4.63-4.654c-0.007-2.564-2.09-4.636-4.654-4.63C63.984,291.643,61.911,293.727,61.917,296.291z
	 M71.25,315.013c-0.007-2.564-2.09-4.637-4.654-4.63c-2.564,0.007-4.636,2.09-4.63,4.654c0.007,2.564,2.09,4.636,4.654,4.63
	C69.185,319.66,71.257,317.576,71.25,315.013z M80.599,305.615c-0.007-2.564-2.09-4.636-4.654-4.629
	c-2.564,0.007-4.636,2.09-4.63,4.654c0.007,2.564,2.09,4.636,4.654,4.63C78.533,310.262,80.606,308.179,80.599,305.615z
	 M85.68,139.161v-25.278c0-2.67,2.165-4.835,4.835-4.835h25.278c2.67,0,4.835,2.164,4.835,4.835v25.278
	c0,2.67-2.164,4.835-4.835,4.835H90.515C87.845,143.995,85.68,141.831,85.68,139.161z M90.216,134.729
	c0,2.67,2.164,4.835,4.835,4.835h13.636c0.785,0,1.411-0.653,1.38-1.437c-0.03-0.741-0.639-1.326-1.38-1.326H97.468
	c-2.67,0-4.835-2.165-4.835-4.835v-8.575c0-0.668-0.541-1.209-1.209-1.209c-0.668,0-1.209,0.541-1.209,1.209V134.729z
	 M539.146,154.738l-77.543-0.211c-2.044-0.006-3.697-1.667-3.691-3.712l0.141-48.667c0.006-2.037,1.656-3.686,3.693-3.69
	l77.403-0.155c2.047-0.004,3.708,1.654,3.708,3.701v49.033C542.857,153.085,541.194,154.744,539.146,154.738z M464.564,103.975
	c-0.01,3.138,1.726,5.965,4.53,7.375l25.658,12.905c3.39,1.705,7.86,1.72,11.264,0.033l25.732-12.756
	c2.814-1.394,4.566-4.211,4.575-7.349L464.564,103.975z M464.58,138.966l20.24-12.414c0,0-19.734-9.974-20.24-10.312V138.966z
	 M535.752,148.227c-0.511-1.346-1.452-2.502-2.723-3.292l-24.119-14.81c-2.625,1.301-5.562,1.99-8.494,1.99
	c-3.007-0.008-5.96-0.714-8.593-2.042l-24.206,14.672c-1.275,0.783-2.223,1.935-2.741,3.275L535.752,148.227z M536.34,116.382
	c-0.539,0.362-20.405,10.262-20.405,10.262l20.405,12.678V116.382z M100.377,444.688H80.821c-0.981,0-1.868,0.379-2.552,0.983
	c-0.803,0.71-1.32,1.736-1.32,2.89v14.559h3.15v-14.559c0-0.398,0.324-0.723,0.722-0.723h19.556c0.398,0,0.722,0.325,0.722,0.723
	v14.559h3.15v-14.559C104.249,446.426,102.512,444.688,100.377,444.688z M83.708,452.564c0,1.312,0,2.625,0,3.938
	c0,1.52,2.363,1.523,2.363,0c0-1.313,0-2.625,0-3.938C86.071,451.043,83.708,451.041,83.708,452.564z M95.127,452.564
	c0,1.312,0,2.625,0,3.938c0,1.52,2.363,1.523,2.363,0c0-1.313,0-2.625,0-3.938C97.49,451.043,95.127,451.041,95.127,452.564z"></path>
<path id="color_x5F_2_40_" fill="#11477b" d="M229.477,534.009c0.401,7.569,6.981,13.344,14.56,13.344h28.871l-15.241-23.659
	c-1.073-1.664-0.618-3.899,1.017-4.991c1.632-1.093,3.828-0.629,4.899,1.036l17.789,27.614h24.459v-85.634
	c-0.939-0.216-1.876-0.43-2.823-0.651c0,0-0.001,0.001-0.001,0.001c-9.083,2.535-26.567,5.812-31.636,6.744
	c-24.328,4.721-41.236,6.975-41.236,6.975s-1.603-3.108-3.339-7.565c-5.579,3.093-11.664,6.457-17.389,9.554h10.191
	c4.668,0,8.453,3.784,8.453,8.453c0,4.668-3.784,8.453-8.453,8.453h-47.86c-7.88,0-14.251,6.46-14.106,14.372
	c0.142,7.767,6.806,13.844,14.574,13.844h17.288l-5.59-4.859c-1.05,0.857-2.433,1.296-3.877,1.072
	c-2.701-0.419-4.551-2.948-4.132-5.649c0.419-2.701,2.948-4.551,5.649-4.132c1.344,0.208,2.477,0.941,3.225,1.956l13.672-6.862
	c-0.145-0.608-0.182-1.251-0.081-1.907c0.419-2.701,2.948-4.551,5.649-4.132c2.701,0.419,4.551,2.948,4.132,5.649
	c-0.419,2.701-2.948,4.551-5.649,4.132c-1.45-0.225-2.638-1.068-3.378-2.208l-13.608,6.83c0.21,0.69,0.289,1.431,0.171,2.191
	c-0.103,0.661-0.335,1.27-0.662,1.809l7.031,6.111l27.159,0c5.903,0,10.469,4.949,10.264,10.849
	C229.451,533.163,229.455,533.584,229.477,534.009z M259.726,511.327c-6.942-0.746-7.776,4.394-7.85,4.981
	c-0.114,0.91-0.877,1.581-1.755,1.581c-0.069,0-0.14-0.005-0.211-0.013c-0.964-0.118-1.656-0.999-1.548-1.982
	c0.352-3.216,3.264-9.049,11.734-8.153c0.972,0.105,1.677,0.991,1.575,1.981C261.566,510.713,260.694,511.423,259.726,511.327z
	 M261.498,503.112c-15.492-1.667-17.022,10.628-17.08,11.151c-0.1,0.921-0.867,1.602-1.755,1.602c-0.066,0-0.132-0.003-0.199-0.011
	c-0.971-0.11-1.671-1.002-1.562-1.991c0.017-0.164,2.026-16.353,20.965-14.337c0.972,0.105,1.677,0.992,1.575,1.981
	C263.34,502.497,262.475,503.207,261.498,503.112z M261.927,490.261c0.972,0.105,1.677,0.992,1.575,1.981
	c-0.104,0.99-0.977,1.689-1.945,1.604c-23.196-2.508-25.495,16.056-25.582,16.847c-0.1,0.921-0.866,1.603-1.755,1.603
	c-0.066,0-0.132-0.004-0.199-0.012c-0.971-0.11-1.671-1.002-1.562-1.991C232.486,510.063,235.286,487.41,261.927,490.261z
	 M394.448,519.136h-6.298c-5.014,0-9.061-4.14-8.909-9.187c0.146-4.878,4.402-8.639,9.283-8.639h54.842
	c7.88,0,14.251-6.46,14.106-14.373c-0.142-7.767-6.806-13.844-14.574-13.844h-11.577c-7.045,0-12.703-5.939-12.24-13.083
	c0.422-6.52,6.127-11.45,12.66-11.45h4.528l-25.694-25.694c-12.27,7.269-26.952,13.719-42.573,19.388
	c5.268,1.307,10.383,2.375,15.279,3.125c0.079,0.505,0.13,1.025,0.168,1.552l17.026,1.026c-0.237,2.607,23.322,39.494,18.79,39.723
	c-2.763,0.139-23.634-11.359-40.047-20.457c-1.737,4.457-3.339,7.565-3.339,7.565s-30.36-4.049-68.251-12.656v85.222h17.014
	l17.789-27.614c1.071-1.663,3.263-2.129,4.9-1.036c1.633,1.092,2.089,3.327,1.016,4.991l-15.241,23.659h61.811
	c7.88,0,14.251-6.46,14.106-14.372C408.88,525.214,402.216,519.136,394.448,519.136z M344.086,490.257
	c26.643-2.842,29.442,19.804,29.468,20.033c0.107,0.989-0.591,1.881-1.562,1.991c-0.067,0.008-0.133,0.011-0.199,0.011
	c-0.888,0-1.653-0.679-1.755-1.598c-0.091-0.801-2.503-19.327-25.583-16.851c-0.952,0.095-1.842-0.613-1.944-1.604
	C342.409,491.249,343.114,490.362,344.086,490.257z M346.288,511.323c-0.98,0.097-1.842-0.615-1.944-1.604
	c-0.102-0.989,0.603-1.876,1.575-1.981c8.473-0.906,11.383,4.935,11.735,8.152c0.107,0.989-0.591,1.881-1.562,1.991
	c-0.067,0.008-0.133,0.012-0.199,0.012c-0.886,0-1.648-0.675-1.755-1.59C354.061,515.703,353.206,510.582,346.288,511.323z
	 M357.328,535.32c-4.451,0-4.444-6.906,0-6.906C361.78,528.414,361.772,535.32,357.328,535.32z M363.353,515.861
	c-0.888,0-1.652-0.678-1.755-1.596c-0.064-0.525-1.674-12.82-17.081-11.158c-0.971,0.087-1.843-0.616-1.945-1.604
	c-0.102-0.989,0.603-1.876,1.575-1.981c18.945-2.025,20.947,14.173,20.966,14.337c0.107,0.989-0.591,1.881-1.562,1.991
	C363.484,515.857,363.418,515.861,363.353,515.861z M386.174,535.32c-6.044,0-12.088,0-18.132,0c-4.451,0-4.444-6.906,0-6.906
	c6.044,0,12.088,0,18.132,0C390.625,528.414,390.618,535.32,386.174,535.32z M398.536,535.32c-4.451,0-4.444-6.906,0-6.906
	C402.987,528.414,402.98,535.32,398.536,535.32z M507.554,420.343h-11.972c-6.942,0-12.586-5.558-12.724-12.468
	c-0.143-7.13-5.596-12.987-12.727-12.987h-29.262c-5.329,10.012-15.543,19.001-28.71,27.018l26.653,26.653h69.21
	c7.88,0,14.251-6.46,14.106-14.373C521.986,426.421,515.322,420.343,507.554,420.343z M476.831,435.597c-8.791,0-17.582,0-26.373,0
	c-4.451,0-4.444-6.906,0-6.906c8.791,0,17.582,0,26.373,0C481.283,428.691,481.275,435.597,476.831,435.597z M491.666,435.597
	c-4.451,0-4.444-6.906,0-6.906C496.117,428.691,496.11,435.597,491.666,435.597z M89.21,423.106h51.098v-18.354h31.906
	c-2.867-3.172-5.255-6.457-7.067-9.863H88.742c-7.88,0-14.251,6.46-14.106,14.372C74.778,417.028,81.442,423.106,89.21,423.106z
	 M117.498,405.614c4.121,0,8.242,0,12.362,0c4.451,0,4.444,6.906,0,6.906c-4.121,0-8.242,0-12.362,0
	C113.047,412.521,113.054,405.614,117.498,405.614z M88.652,405.614c5.22,0,10.439,0,15.659,0c4.451,0,4.444,6.906,0,6.906
	c-5.22,0-10.439,0-15.659,0C84.201,412.521,84.208,405.614,88.652,405.614z M205.539,447.957l17.026-1.026
	c0.039-0.527,0.089-1.047,0.168-1.552c4.161-0.637,8.485-1.511,12.922-2.559c0.551-0.143,1.302-0.352,2.222-0.616
	c-26.4-9.59-50.09-21.423-63.971-35.655h-31.802v16.557h32.267c7.309,0,13.179,6.162,12.699,13.574
	c-0.438,6.764-6.357,11.88-13.135,11.88h-25.132c-7.88,0-14.251,6.46-14.106,14.372c0.142,7.767,6.806,13.844,14.574,13.844h40.94
	C195.931,465.606,205.692,449.64,205.539,447.957z M146.344,465.824c-4.451,0-4.444-6.906,0-6.906
	C150.795,458.918,150.788,465.824,146.344,465.824z M187.551,465.824c-9.34,0-18.681,0-28.021,0c-4.451,0-4.444-6.906,0-6.906
	c9.34,0,18.681,0,28.021,0C192.003,458.918,191.995,465.824,187.551,465.824z M560.063,369.465l4.023,0.994
	c-0.475,2.276-1.149,4.501-1.78,6.737l-3.996-1.099C558.932,373.897,559.596,371.707,560.063,369.465z M562.748,357.456l4.065,0.805
	c-0.185,1.148-1.484,6.809-1.484,6.809l-4.043-0.911C561.287,364.159,562.567,358.586,562.748,357.456z M548.683,404.603
	l3.844,1.549c-0.616,1.543-1.225,3.089-1.875,4.617c-0.259,0.609-0.503,1.224-0.789,1.822l-3.802-1.648
	c0.027-0.057,0.048-0.117,0.076-0.174C547.086,408.757,547.858,406.669,548.683,404.603z M553.017,393.087l3.912,1.367
	c0,0-2.096,5.829-2.374,6.552l-3.875-1.469C550.885,399.005,553.017,393.087,553.017,393.087z M556.798,381.42l3.972,1.183
	l-2.081,6.65l-3.939-1.286L556.798,381.42z M532.509,437.808l3.589,2.07c-1.174,2.005-2.282,4.049-3.509,6.021l-3.535-2.163
	C530.263,441.796,531.353,439.782,532.509,437.808z M538.407,427.009l3.682,1.901c-1.084,2.054-2.062,4.167-3.234,6.173
	l-3.631-1.996C536.379,431.112,537.34,429.032,538.407,427.009z M543.781,415.984l3.767,1.728c-0.985,2.104-1.847,4.267-2.955,6.311
	l-3.72-1.825C541.964,420.186,542.81,418.055,543.781,415.984z M526.068,448.395l3.489,2.236c-0.599,0.926-1.19,1.857-1.785,2.787
	c-0.194-0.942-1.027-1.649-2.026-1.649h-1.843C524.624,450.644,525.342,449.517,526.068,448.395z M487.841,496.598l2.228,2.301
	l-5.045,4.81l-2.805-3.05l4.259-4.06H487.841z M461.382,523.074l-5.68,4.04l-2.355-3.409l5.593-3.977L461.382,523.074z
	 M468.706,512.24l2.595,3.231l-5.48,4.307l-2.511-3.297L468.706,512.24z M478.087,504.337l2.741,3.108l-5.268,4.563l-2.66-3.177
	L478.087,504.337z M427.665,539.388l1.953,3.655l-6.204,3.178l-1.858-3.704L427.665,539.388z M438.377,533.329l2.121,3.56
	l-6.042,3.474l-2.028-3.613L438.377,533.329z M448.762,526.801l2.284,3.458l-5.868,3.762l-2.194-3.516L448.762,526.801z
	 M393.959,554.508l1.423,3.892l-6.603,2.235l-1.321-3.928L393.959,554.508z M405.411,549.999l1.603,3.821l-6.484,2.557l-1.503-3.862
	L405.411,549.999z M416.604,544.979l1.779,3.742l-6.351,2.872l-1.682-3.787L416.604,544.979z M370.423,561.853l1.052,4.008
	c-2.233,0.645-4.519,1.079-6.776,1.629l-0.947-4.034C365.974,562.914,368.226,562.489,370.423,561.853z M382.218,558.48l1.238,3.955
	c-1.487,0.454-5.961,1.713-6.698,1.926l-1.134-3.986C377.016,559.974,381.417,558.725,382.218,558.48z M241.635,563.295l5.646,1.304
	v4.252l-6.604-1.524L241.635,563.295z M206.392,552.254c2.134,0.822,4.242,1.718,6.398,2.479l-1.412,3.896
	c-2.19-0.774-4.331-1.682-6.499-2.517L206.392,552.254z M217.949,556.477l6.502,2.193l-1.228,3.958l-6.605-2.226L217.949,556.477z
	 M229.651,560.146l6.601,1.875l-1.042,4.011l-6.706-1.904L229.651,560.146z M173.037,536.393c1.985,1.137,3.948,2.314,6.007,3.315
	l-1.944,3.66c-2.091-1.018-4.085-2.212-6.101-3.367L173.037,536.393z M183.891,542.19c2.047,1.019,4.042,2.148,6.15,3.042
	l-1.771,3.747c-2.034-0.864-5.937-2.932-5.937-2.932L183.891,542.19z M194.966,547.459c2.096,0.915,4.142,1.947,6.279,2.766
	l-1.594,3.825c-2.17-0.832-4.249-1.879-6.378-2.808L194.966,547.459z M142.212,516.039c0.904,0.7,5.505,4.094,5.505,4.094
	l-2.434,3.354c0,0-5.095-3.774-5.591-4.159L142.212,516.039z M152.156,523.29l5.684,3.843l-2.276,3.463l-5.773-3.903L152.156,523.29
	z M162.39,530.05c0,0,4.864,3.005,5.85,3.585l-2.113,3.565c-1.001-0.589-5.941-3.641-5.941-3.641L162.39,530.05z M119.406,496.407
	l-2.875,2.984c-1.661-1.624-3.414-3.156-4.98-4.875l2.951-2.909C116.042,493.301,117.77,494.807,119.406,496.407z M123.347,500.165
	c1.623,1.615,3.393,3.067,5.114,4.574l-2.734,3.114c-1.748-1.53-3.545-3.006-5.194-4.646L123.347,500.165z M132.548,508.279
	c1.701,1.532,3.51,2.933,5.313,4.341l-2.588,3.237c-1.831-1.43-3.668-2.854-5.396-4.409L132.548,508.279z M73.925,438.417
	l-3.584,2.08l-3.474-6.043l3.637-1.986L73.925,438.417z M73.103,445.289l3.541-2.153l1.625,2.535c-0.803,0.71-1.32,1.736-1.32,2.89
	v2.542l-0.084,0.054L73.103,445.289z M57.658,405.257l-3.84,1.559l-2.557-6.485l3.879-1.458L57.658,405.257z M62.556,416.545
	l-3.763,1.736l-2.871-6.352l3.806-1.638L62.556,416.545z M67.956,427.557l-3.678,1.91l-3.177-6.204l3.726-1.813L67.956,427.557z
	 M46.179,370.15l-4.02,1.005l-1.568-6.792l4.045-0.9L46.179,370.15z M49.453,382.012l-3.969,1.192l-1.904-6.705l3.999-1.088
	L49.453,382.012z M53.264,393.67l-3.909,1.376l-2.234-6.603l3.943-1.273L53.264,393.67z M39.739,333.773l-4.121,0.434
	c-0.274-2.307-0.38-4.63-0.578-6.945l4.131-0.327C39.366,329.213,39.468,331.502,39.739,333.773z M37.194,346.608l-0.879-6.915
	l4.111-0.518l0.864,6.808L37.194,346.608z M43.443,358.061l-4.063,0.814l-1.226-6.862l4.083-0.708L43.443,358.061z M42.25,260.105
	l-4.083-0.71l1.21-6.776l0.015-0.085l0.425,0.085l3.637,0.73L42.25,260.105z M40.43,272.274l-4.111-0.519l0.879-6.915l4.097,0.625
	L40.43,272.274z M39.176,284.475l-4.131-0.328c0.2-2.314,0.3-4.639,0.582-6.945l4.121,0.435
	C39.47,279.907,39.373,282.196,39.176,284.475z M51.087,224.243l-3.943-1.274l0.005-0.015l2.229-6.588l3.908,1.377L51.087,224.243z
	 M43.589,234.952l1.904-6.705l3.969,1.193l-1.875,6.601L43.589,234.952z M44.651,247.948l-4.045-0.901l1.568-6.792l4.02,1.006
	L44.651,247.948z M64.859,189.968l-3.726-1.814l3.177-6.204l3.677,1.911L64.859,189.968z M62.568,194.907l-2.827,6.253l-3.806-1.638
	l2.871-6.352L62.568,194.907z M55.166,212.541l-3.879-1.459l2.557-6.485l3.839,1.56L55.166,212.541z M76.659,168.318l-3.54-2.154
	l3.761-5.868l3.483,2.245L76.659,168.318z M70.538,178.951l-3.636-1.987l3.474-6.043l3.583,2.081L70.538,178.951z M162.449,81.391
	l-2.204-3.509c0,0,4.942-3.05,5.943-3.638l2.112,3.565C167.314,78.388,162.449,81.391,162.449,81.391z M152.18,88.172l-2.364-3.403
	l5.773-3.902l2.276,3.463L152.18,88.172z M142.266,95.397l-2.519-3.29c0.919-0.71,5.593-4.156,5.593-4.156l2.433,3.354
	C147.774,91.305,143.171,94.698,142.266,95.397z M195.029,63.991l-1.693-3.782c2.13-0.928,4.207-1.979,6.38-2.805l1.593,3.825
	C199.17,62.041,197.126,63.078,195.029,63.991z M183.917,69.275l-1.867-3.699c2.079-1.036,4.107-2.179,6.247-3.088l1.77,3.747
	C187.96,67.128,185.964,68.255,183.917,69.275z M171.06,71.442c2.014-1.158,4.012-2.345,6.103-3.364l1.943,3.66
	c-1.528,0.743-5.497,3.018-6.008,3.312L171.06,71.442z M229.718,51.314l-1.146-3.982l6.705-1.904l1.041,4.011L229.718,51.314z
	 M217.977,54.992l-1.331-3.924l6.606-2.225l1.228,3.958L217.977,54.992z M204.945,55.342c2.168-0.833,4.308-1.747,6.5-2.514
	l1.411,3.896c-1.113,0.389-5.365,2.078-6.399,2.476L204.945,55.342z M241.703,48.168l-0.956-4.032l6.792-1.567l0.1,0.475
	c6.639-7.606,16.836-8.687,16.836-9.051c0-4.91,1.106-9.56,3.077-13.721c5.145-10.862,16.204-18.378,29.022-18.378
	c12.275,0,22.922,6.901,28.321,17.025c0.074,0.138,0.157,0.269,0.228,0.408c10.647,0,25.166,7.589,28.651,22.321
	c1.876,0.331,3.757,0.641,5.604,1.112l-0.864,4.053c-1.345-0.343-2.708-0.597-4.074-0.838c0.065,0.81,0.11,1.631,0.11,2.477
	c5.612,3.156,9.406,9.163,9.406,16.06c0,10.172-8.246,18.417-18.417,18.417c-1.141,0-16.627,0-33.664,0v-6.156l8.892-8.892V56.176
	c3.144-0.867,5.463-3.744,5.463-7.16c0-4.098-3.335-7.433-7.433-7.433c-4.098,0-7.433,3.334-7.433,7.433
	c0,3.416,2.319,6.294,5.463,7.16v10.075l-8.892,8.892v7.787c-0.939,0-1.879,0-2.819,0V38.745c3.144-0.866,5.463-3.744,5.463-7.159
	c0-4.098-3.335-7.432-7.433-7.432c-4.098,0-7.433,3.334-7.433,7.432c0,3.416,2.319,6.293,5.463,7.159V82.93c-1.037,0-2.07,0-3.096,0
	v-7.787l-8.892-8.892V56.176c3.144-0.867,5.463-3.744,5.463-7.16c0-4.098-3.335-7.433-7.433-7.433c-4.098,0-7.433,3.334-7.433,7.433
	c0,3.416,2.319,6.294,5.463,7.16v11.707l8.892,8.892v6.156c-14.77,0-27.255,0-28.402,0c-13.078,0-23.679-10.602-23.679-23.679
	c0-4.781,1.008-8.636,2.586-11.762L241.703,48.168z M380.815,52.591c-1.705-0.499-3.418-0.974-5.125-1.469l1.135-3.985
	c2.061,0.597,4.132,1.158,6.185,1.78c0.17,0.052,0.342,0.098,0.513,0.15l-1.239,3.954C381.796,52.87,381.304,52.734,380.815,52.591z
	 M370.452,49.634c-2.197-0.639-4.449-1.062-6.671-1.605l0.947-4.034c2.257,0.55,4.544,0.983,6.776,1.631L370.452,49.634z
	 M410.947,63.943l-0.533-0.241l1.682-3.787l6.351,2.872l-1.781,3.742L410.947,63.943z M405.438,61.491l-6.384-2.517l1.503-3.861
	l6.485,2.557L405.438,61.491z M394.025,56.994l-6.5-2.199l1.322-3.927l6.603,2.235L394.025,56.994z M448.821,84.716l-5.778-3.704
	l2.194-3.515l5.868,3.762L448.821,84.716z M438.402,78.165l-5.949-3.421l2.029-3.613l6.043,3.475L438.402,78.165z M427.727,72.123
	l-6.108-3.128l1.859-3.704l6.204,3.178L427.727,72.123z M467.699,98.447l-4.365-3.431l2.511-3.296l5.48,4.307l-1.942,2.417
	L467.699,98.447z M453.403,87.815l2.356-3.409l5.68,4.039l-2.444,3.347L453.403,87.815z M526.105,163.143
	c-1.242-1.921-2.453-3.863-3.719-5.767l3.43-2.325c1.286,1.935,2.517,3.906,3.778,5.857L526.105,163.143z M540.904,189.343
	l3.721-1.824c0.203,0.373,0.389,0.754,0.577,1.134c0.841,1.702,1.567,3.46,2.375,5.179l-3.767,1.727
	C542.836,193.488,541.997,191.355,540.904,189.343z M535.238,178.417l3.632-1.996c1.169,2.008,2.149,4.119,3.233,6.174l-3.683,1.9
	C537.354,182.473,536.391,180.394,535.238,178.417z M529.092,167.801l3.535-2.162c1.221,1.976,2.334,4.018,3.507,6.023l-3.59,2.07
	C531.389,171.757,530.295,169.746,529.092,167.801z M554.772,223.578l3.939-1.285l2.078,6.651l-3.972,1.182L554.772,223.578z
	 M550.691,211.969l3.875-1.468c0.275,0.718,1.224,3.353,1.835,5.055c0.312,0.868,0.537,1.497,0.537,1.497l-3.912,1.366
	c0,0-0.49-1.369-1.028-2.864C551.47,214.087,550.894,212.498,550.691,211.969z M546.089,200.6l3.802-1.647
	c1.003,2.098,1.797,4.284,2.661,6.44l-2.171,0.874l-1.673,0.674c-0.09-0.224-0.177-0.449-0.265-0.674
	C547.692,204.363,546.974,202.446,546.089,200.6z M561.294,247.348l4.043-0.91l1.482,6.809l-4.065,0.804L561.294,247.348z
	 M558.328,235.448l3.996-1.098c0.635,2.235,1.301,4.462,1.777,6.738l-4.023,0.993C559.611,239.841,558.954,237.648,558.328,235.448z
	 M572.21,316.478h-22.907l-2.556,1.736l1.618-2.847v-7.719c0-0.544,0.387-0.988,0.863-0.988h22.982c0.476,0,0.863,0.444,0.863,0.988
	v7.841C573.073,316.034,572.685,316.478,572.21,316.478z M572.21,282.002h-22.907l-2.556,1.737l1.618-2.847v-7.719
	c0-0.544,0.387-0.988,0.863-0.988h22.982c0.476,0,0.863,0.444,0.863,0.988v7.841C573.073,281.558,572.685,282.002,572.21,282.002z
	 M588.127,261.472h-45.794c-0.844,0-1.527,0.684-1.527,1.527v82.865c0,0.844,0.684,1.527,1.527,1.527h45.794
	c0.844,0,1.528-0.684,1.528-1.527v-82.865C589.655,262.155,588.971,261.472,588.127,261.472z M547.329,280.539v-7.366
	c0-1.199,0.852-2.174,1.899-2.174h22.982c1.047,0,1.899,0.975,1.899,2.174v7.841c0,1.199-0.852,2.174-1.899,2.174h-22.622
	l-6.127,4.163L547.329,280.539z M543.46,321.827l3.869-6.812v-7.366c0-1.199,0.852-2.174,1.899-2.174h22.982
	c1.047,0,1.899,0.975,1.899,2.174v7.841c0,1.199-0.852,2.174-1.899,2.174h-22.622L543.46,321.827z M581.345,334.916h-21.871
	c-0.762,0-1.38-0.708-1.38-1.581v-7.842c0-0.873,0.618-1.581,1.38-1.581h22.088c0.763,0,1.381,0.708,1.381,1.581v7.543l2.743,4.829
	L581.345,334.916z M581.345,300.44h-21.871c-0.762,0-1.38-0.708-1.38-1.581v-7.842c0-0.873,0.618-1.581,1.38-1.581h22.088
	c0.763,0,1.381,0.708,1.381,1.581v7.543l2.743,4.829L581.345,300.44z M350.872,556.932h-95.73c-2.383,0-4.323,2.311-4.323,5.152
	v13.281c0,2.84,1.939,5.151,4.323,5.151h95.73c2.384,0,4.322-2.311,4.322-5.151v-13.281
	C355.194,559.243,353.256,556.932,350.872,556.932z M262.319,572.333c-1.605,0-2.906-1.301-2.906-2.906
	c0-1.605,1.301-2.906,2.906-2.906s2.906,1.301,2.906,2.906C265.225,571.032,263.924,572.333,262.319,572.333z M273.944,572.333
	c-1.605,0-2.906-1.301-2.906-2.906c0-1.605,1.301-2.906,2.906-2.906c1.605,0,2.906,1.301,2.906,2.906
	C276.85,571.032,275.549,572.333,273.944,572.333z M285.569,572.333c-1.605,0-2.906-1.301-2.906-2.906
	c0-1.605,1.301-2.906,2.906-2.906c1.605,0,2.906,1.301,2.906,2.906C288.476,571.032,287.174,572.333,285.569,572.333z
	 M297.194,572.333c-1.605,0-2.906-1.301-2.906-2.906c0-1.605,1.301-2.906,2.906-2.906s2.906,1.301,2.906,2.906
	C300.101,571.032,298.8,572.333,297.194,572.333z M308.82,572.333c-1.605,0-2.906-1.301-2.906-2.906
	c0-1.605,1.301-2.906,2.906-2.906s2.906,1.301,2.906,2.906C311.726,571.032,310.425,572.333,308.82,572.333z M320.445,572.333
	c-1.605,0-2.906-1.301-2.906-2.906c0-1.605,1.301-2.906,2.906-2.906s2.906,1.301,2.906,2.906
	C323.351,571.032,322.05,572.333,320.445,572.333z M332.07,572.333c-1.605,0-2.906-1.301-2.906-2.906
	c0-1.605,1.301-2.906,2.906-2.906c1.605,0,2.906,1.301,2.906,2.906C334.976,571.032,333.675,572.333,332.07,572.333z
	 M343.695,572.333c-1.605,0-2.906-1.301-2.906-2.906c0-1.605,1.301-2.906,2.906-2.906c1.605,0,2.906,1.301,2.906,2.906
	C346.601,571.032,345.3,572.333,343.695,572.333z M287.249,52.52c-1.929,0.016-3.506-1.534-3.523-3.464
	c-0.016-1.93,1.534-3.507,3.463-3.523c1.929-0.017,3.507,1.534,3.523,3.464C290.728,50.925,289.178,52.503,287.249,52.52z
	 M303.146,35.079c-1.926,0-3.493-1.567-3.493-3.493c0-1.926,1.567-3.493,3.493-3.493c1.926,0,3.493,1.567,3.493,3.493
	S305.072,35.079,303.146,35.079z M318.829,52.518c-1.929,0.016-3.506-1.536-3.521-3.465c-0.016-1.93,1.536-3.506,3.465-3.522
	c1.929-0.016,3.506,1.536,3.521,3.465C322.31,50.926,320.758,52.503,318.829,52.518z M56.659,144.999h16.3v8.083
	c0,2.007,1.627,3.635,3.635,3.635h4.869l1.84,1.24l0.878-1.24h0.496v16.3c0,0.954,0.773,1.727,1.727,1.727h1.053
	c0.954,0,1.727-0.773,1.727-1.727v-16.3h6.309v16.3c0,0.954,0.773,1.727,1.727,1.727h1.053c0.954,0,1.727-0.773,1.727-1.727v-16.3
	h6.309v16.3c0,0.954,0.773,1.727,1.727,1.727h1.053c0.954,0,1.727-0.773,1.727-1.727v-16.3h6.31v16.3
	c0,0.954,0.773,1.727,1.727,1.727h1.053c0.954,0,1.727-0.773,1.727-1.727v-16.3h8.083c2.007,0,3.635-1.627,3.635-3.635v-8.083h16.3
	c0.954,0,1.727-0.773,1.727-1.727v-1.053c0-0.954-0.773-1.727-1.727-1.727h-16.3v-6.309h16.3c0.954,0,1.727-0.773,1.727-1.727
	v-1.054c0-0.954-0.773-1.727-1.727-1.727h-16.3v-6.309h16.3c0.954,0,1.727-0.773,1.727-1.727v-1.053
	c0-0.954-0.773-1.727-1.727-1.727h-16.3v-6.309h16.3c0.954,0,1.727-0.773,1.727-1.727v-1.053c0-0.954-0.773-1.727-1.727-1.727h-16.3
	v-5.522c1.483-1.283,3.023-2.497,4.567-3.706l-2.587-3.237c-0.919,0.72-1.841,1.437-2.751,2.169
	c-0.665-0.858-1.694-1.421-2.864-1.421h-8.083v-16.3c0-0.954-0.773-1.727-1.727-1.727h-1.053c-0.954,0-1.727,0.773-1.727,1.727v16.3
	h-6.31v-16.3c0-0.954-0.773-1.727-1.727-1.727h-1.053c-0.954,0-1.727,0.773-1.727,1.727v16.3h-6.309v-16.3
	c0-0.954-0.773-1.727-1.727-1.727h-1.053c-0.954,0-1.727,0.773-1.727,1.727v16.3h-6.309v-16.3c0-0.954-0.773-1.727-1.727-1.727
	h-1.053c-0.954,0-1.727,0.773-1.727,1.727v16.3h-8.083c-2.007,0-3.635,1.627-3.635,3.635v8.083h-16.3
	c-0.954,0-1.727,0.773-1.727,1.727v1.053c0,0.954,0.773,1.727,1.727,1.727h16.3v6.309h-16.3c-0.954,0-1.727,0.773-1.727,1.727v1.053
	c0,0.954,0.773,1.727,1.727,1.727h16.3v6.309h-16.3c-0.954,0-1.727,0.773-1.727,1.727v1.054c0,0.954,0.773,1.727,1.727,1.727h16.3
	v6.309h-16.3c-0.954,0-1.727,0.773-1.727,1.727v1.053C54.932,144.226,55.705,144.999,56.659,144.999z M90.515,109.048h25.278
	c2.67,0,4.835,2.164,4.835,4.835v25.278c0,2.67-2.164,4.835-4.835,4.835H90.515c-2.67,0-4.835-2.165-4.835-4.835v-25.278
	C85.68,111.212,87.845,109.048,90.515,109.048z M108.712,465.499c0-1.314-1.066-2.38-2.38-2.38H74.866
	c-1.314,0-2.38,1.066-2.38,2.38v44.475c0,4.338,1.529,8.317,4.072,11.436c3.321,4.073,8.375,6.677,14.041,6.677
	s10.719-2.604,14.04-6.677c1.163-1.426,2.103-3.037,2.792-4.776c0.817-2.064,1.281-4.306,1.281-6.661v-20.507l1.972-1.865
	c-0.646-0.698-1.311-1.377-1.972-2.06V465.499z M80.068,513.559c0,0.65-0.527,1.177-1.177,1.177h-0.306
	c-0.65,0-1.177-0.527-1.177-1.177v-45.232c0-0.65,0.527-1.177,1.177-1.177h0.306c0.65,0,1.177,0.527,1.177,1.177V513.559z"></path>
<path id="color_x5F_1_39_" fill="#c7e8fd" d="M108.712,465.499v6.64l31.596-31.596v-17.437H89.21
	c-7.768,0-14.432-6.077-14.574-13.844c-0.145-7.913,6.226-14.372,14.106-14.372l24.294-0.002c-1.144,0-2.071-0.927-2.071-2.072
	v-44.454h33.315v4.726c8.398,0.999,14.934,8.152,14.934,16.814c0,8.662-6.537,15.815-14.934,16.814v6.1
	c0,1.144-0.928,2.072-2.072,2.072l22.939,0.002c-2.579-4.845-4.028-9.926-4.103-15.253c-0.122-8.748,19.458-16.096,44.553-19.558
	c-7.727-7.739-13.346-16.082-15.183-24.813c-1.297-6.164-1.494-12.466-0.888-18.762l-50.764-50.764H45.643v19.589l17.685-0.047
	c13.449-0.01,24.762,10.079,26.286,23.441l2.3,20.175c0.609,5.344-3.127,10.209-8.447,10.999h0c-4.916,0.73-9.62-2.268-11.032-7.033
	l-1.926-6.497c-0.853-2.876-48.222-2.751-49.059,0.129l-1.892,6.507c-0.476,1.636-1.346,3.059-2.474,4.205
	c0.331,3.038,0.712,6.06,1.136,9.068h18.93l-0.837-6.582l4.111-0.518l0.864,6.808l-1.914,0.292h8.717
	c4.864,0,8.807,3.943,8.807,8.807c0,4.864-3.943,8.807-8.807,8.807h-3.36l1.444,6.26l-4.02,1.005l-1.568-6.792l2.128-0.473H21.248
	c4.067,19.81,10.188,38.868,18.1,56.964h29.141c4.864,0,8.807,3.943,8.807,8.807c0,3.141-1.649,5.889-4.123,7.449l0.752,1.308
	l-3.584,2.08l-1.186-2.063c-0.221,0.017-0.441,0.034-0.666,0.034H47.771c7.194,13.805,15.46,26.962,24.715,39.341v-12.309
	c0-1.314,1.066-2.38,2.38-2.38h2.083v-12.016l-0.084,0.054l-3.761-5.868l3.541-2.153l1.625,2.535
	c0.683-0.604,1.57-0.983,2.552-0.983h19.556c2.135,0,3.872,1.738,3.872,3.873v14.559h2.082
	C107.646,463.119,108.712,464.185,108.712,465.499z M35.618,334.207c-0.274-2.307-0.38-4.63-0.578-6.945l4.131-0.327
	c0.195,2.279,0.298,4.568,0.568,6.839L35.618,334.207z M128.696,339.466c-6.033,0-6.042-9.067,0-9.067
	C134.729,330.399,134.739,339.466,128.696,339.466z M148.801,287.986c6.033,0,6.043,9.067,0,9.067
	C142.768,297.053,142.758,287.986,148.801,287.986z M110.466,287.986h24.167c6.033,0,6.042,9.067,0,9.067c-2.083,0-1.042,0-3.125,0
	c-3.229,0-3.229,5.44,0,5.44h23.126c6.033,0,6.042,9.067,0,9.067h-5.729c-3.021,0-5.208,0.504-5.208,3.526
	c0,3.224,2.396,3.526,5.208,3.526c6.033,0,5.73,9.067-0.313,9.067h-20.625c-6.033,0-6.043-9.067,0-9.067c2.917,0,1.354,0,4.271,0
	c5,0,5.625-7.052,0-7.052h-15.209c-6.032,0-6.042-9.067,0-9.067h1.979c4.063,0,4.271-5.44,0-5.44h-8.542
	C104.434,297.053,104.424,287.986,110.466,287.986z M103.799,302.493c6.033,0,6.043,9.067,0,9.067
	C97.767,311.56,97.757,302.493,103.799,302.493z M85.782,368.407c3.344,1.803,6.687,3.606,10.031,5.409
	c1.282,0.691,1.282,2.711,0,3.402c-3.343,1.803-6.687,3.606-10.031,5.409c-2.234,1.205-4.221-2.198-1.989-3.402l6.876-3.708
	c-2.292-1.236-4.584-2.472-6.876-3.708C81.558,370.604,83.55,367.203,85.782,368.407z M43.58,376.499l3.999-1.088l1.874,6.601
	l-3.969,1.192L43.58,376.499z M47.121,388.443l3.943-1.273l2.2,6.5l-3.909,1.376L47.121,388.443z M51.262,400.331l3.879-1.458
	l2.517,6.384l-3.84,1.559L51.262,400.331z M58.794,418.281l-2.871-6.352l3.806-1.638l2.827,6.253L58.794,418.281z M68.641,382.628
	c-3.344-1.803-6.687-3.606-10.031-5.409c-1.282-0.691-1.282-2.711,0-3.402c3.344-1.803,6.687-3.606,10.031-5.409
	c2.234-1.205,4.222,2.198,1.989,3.402c-2.292,1.236-4.584,2.472-6.876,3.708l6.876,3.708
	C72.865,380.431,70.873,383.831,68.641,382.628z M72.291,385.632c2.014-7.093,4.028-14.185,6.042-21.278
	c0.693-2.439,4.493-1.396,3.8,1.047c-2.014,7.093-4.028,14.185-6.042,21.278C75.398,389.119,71.597,388.076,72.291,385.632z
	 M371.95,308.737h-9.713c0.451-4.265,0.898-8.585,1.333-12.913c3.588,5.958,6.674,10.873,8.15,12.717
	C371.784,308.62,371.876,308.669,371.95,308.737z M234.293,308.54c1.476-1.844,4.562-6.758,8.15-12.717
	c0.435,4.328,0.883,8.648,1.333,12.913h-9.713C234.139,308.669,234.23,308.62,234.293,308.54z M376.978,308.737
	c1.806-0.603,3.932-1.611,6.247-2.912c0.814,1.446,1.566,2.893,2.245,4.333c-1.454-0.895-3.16-1.421-4.993-1.421H376.978z
	 M535.185,352.714v-60.771h-98.241l-20.902,20.902c1.096,7.507,1.106,15.061-0.442,22.42c-1.837,8.731-7.456,17.074-15.183,24.813
	c25.095,3.462,44.675,10.81,44.553,19.558c-0.075,5.327-1.524,10.408-4.103,15.253h29.262c7.131,0,12.585,5.857,12.727,12.987
	c0.138,6.909,5.782,12.468,12.724,12.468h11.972c7.768,0,14.431,6.077,14.573,13.844c0.144,7.913-6.227,14.373-14.106,14.373h-69.21
	l14.708,14.708h20.268v-9.429c0-1.144,0.926-2.069,2.07-2.069h48.045c0.722-1.125,1.439-2.252,2.165-3.374l3.489,2.236
	c-0.599,0.926-1.19,1.857-1.785,2.787c0.028,0.136,0.043,0.276,0.043,0.421v9.054l20.136-6.309
	c8.932-14.473,16.626-29.789,22.914-45.814h-20.214c-0.259,0.609-0.503,1.224-0.789,1.822l-3.802-1.648
	c0.027-0.057,0.048-0.117,0.076-0.174h-30.814c-4.864,0-8.807-3.943-8.807-8.807c0-4.864,3.943-8.807,8.807-8.807h25.122
	c-1.49-1.577-2.41-3.699-2.41-6.041c0-4.864,3.943-8.807,8.807-8.807h34.568c1.843-7.091,3.429-14.286,4.734-21.579H539.2
	C536.982,356.728,535.185,354.931,535.185,352.714z M543.781,415.984l3.767,1.728c-0.985,2.104-1.847,4.267-2.955,6.311l-3.72-1.825
	C541.964,420.186,542.81,418.055,543.781,415.984z M538.407,427.009l3.682,1.901c-1.084,2.054-2.062,4.167-3.234,6.173l-3.631-1.996
	C536.379,431.112,537.34,429.032,538.407,427.009z M532.509,437.808l3.589,2.07c-1.174,2.005-2.282,4.049-3.509,6.021l-3.535-2.163
	C530.263,441.796,531.353,439.782,532.509,437.808z M481.371,378.371c-14.904,0-27.028-12.125-27.028-27.028
	c0-14.903,12.124-27.028,27.028-27.028c14.903,0,27.028,12.124,27.028,27.028C508.399,366.246,496.274,378.371,481.371,378.371z
	 M562.748,357.456l4.065,0.805c-0.185,1.148-1.484,6.809-1.484,6.809l-4.043-0.911C561.287,364.159,562.567,358.586,562.748,357.456
	z M560.063,369.465l4.023,0.994c-0.475,2.276-1.149,4.501-1.78,6.737l-3.996-1.099C558.932,373.897,559.596,371.707,560.063,369.465
	z M220.544,310.157c0.679-1.44,1.43-2.886,2.244-4.333c2.316,1.301,4.441,2.31,6.247,2.912h-3.499
	C223.704,308.737,221.998,309.262,220.544,310.157z M324.642,547.353l-3.44,5.34c-0.004,0.007-0.004,0.015-0.008,0.022h-13.566
	v-5.362H324.642z M305.832,552.715H284.82c-0.004-0.007-0.003-0.015-0.008-0.022l-3.44-5.34h24.459V552.715z M393.129,213.143
	l-0.263,0.263c0,0-6.306,6.306-15.54,15.54c6.254,7.572,14.572,17.963,21.741,27.427l57.392-57.391h43.675v-44.35l-38.531-0.105
	c-2.044-0.006-3.697-1.667-3.691-3.712l0.141-48.667c0.006-2.037,1.656-3.686,3.693-3.69l5.953-0.012l-4.365-3.431l2.511-3.296
	l5.48,4.307l-1.942,2.417l32.955-0.066c-2.673-2.571-5.402-5.084-8.173-7.551h-34.464l-0.705,0.966l-1.358-0.966h-22.566
	c-4.864,0-8.807-3.943-8.807-8.807c0-4.22,2.97-7.743,6.933-8.603l1.284-2.287l3.621,2.082h34.226
	c-4.402-3.211-8.892-6.308-13.478-9.27h-40.953l-1.23,2.586l-5.72-2.586h-21.703c-4.864,0-8.807-3.943-8.807-8.807
	c0-0.885,0.134-1.739,0.377-2.545c-1.705-0.499-3.418-0.974-5.125-1.469l1.135-3.985c2.061,0.597,4.132,1.158,6.185,1.78
	c1.594-1.598,3.799-2.587,6.235-2.587h6.936c-0.641-1.222-1.009-2.61-1.009-4.085c0-3.213,1.726-6.015,4.296-7.554
	c-23.593-8.397-48.598-13.816-74.573-15.771c0.074,0.138,0.157,0.269,0.228,0.408c10.647,0,25.166,7.589,28.651,22.321
	c1.876,0.331,3.757,0.641,5.604,1.112l-0.864,4.053c-1.345-0.343-2.708-0.597-4.074-0.838c0.065,0.81,0.11,1.631,0.11,2.477
	c5.612,3.156,9.406,9.163,9.406,16.06c0,10.172-8.246,18.417-18.417,18.417c-1.141,0-16.627,0-33.664,0c-0.11,0-0.22,0-0.331,0
	l81.586,81.585V213.143z M447.493,190.901l-0.547,0.547c-0.576,0.576-1.509,0.576-2.086,0l-0.06-0.059l-2.256-2.257l-0.06-0.059
	c-0.576-0.576-0.576-1.51,0-2.086l0.547-0.547c0.25-0.25,0.57-0.371,0.896-0.404c0.52,0.768,1.113,1.501,1.793,2.181
	c0.678,0.678,1.41,1.27,2.175,1.789C447.863,190.332,447.743,190.651,447.493,190.901z M446.318,166.861
	c5.775-5.775,15.135-5.775,20.916,0.006c5.775,5.775,5.775,15.135,0,20.91c-5.102,5.102-12.988,5.693-18.741,1.794
	c-0.766-0.519-1.497-1.11-2.175-1.788c-0.68-0.68-1.273-1.413-1.793-2.181C440.624,179.846,441.217,171.961,446.318,166.861z
	 M427.708,201.382c5.086-4.809,6.936-6.298,12.022-11.107c0.691-0.647,1.628-0.861,2.5-0.671l2.256,2.257
	c0.19,0.872-0.025,1.809-0.671,2.5c-4.809,5.086-6.382,6.853-11.191,11.939c-1.041,1.113-3.061,0.932-4.454-0.462
	C426.776,204.443,426.595,202.423,427.708,201.382z M423.478,65.291l6.204,3.178l-1.954,3.654l-6.108-3.128L423.478,65.291z
	 M370.452,49.634c-2.197-0.639-4.449-1.062-6.671-1.605l0.947-4.034c2.257,0.55,4.544,0.983,6.776,1.631L370.452,49.634z
	 M404.332,181.305v17.088h-4.849v-16.139h-4.742l7.018-7.967l7.018,7.018H404.332z M392.129,112.118
	c0-7.01,5.682-12.692,12.692-12.692c7.01,0,12.693,5.682,12.693,12.692c0,7.01-12.693,26.686-12.693,26.686
	S392.129,119.128,392.129,112.118z M467.882,342.334h-9.68c2.424-6.211,7.271-11.218,13.378-13.844
	C470.518,331.342,468.91,336.287,467.882,342.334z M178.803,124.12c0.614-3.248,3.233-5.867,6.481-6.481
	c5.814-1.1,10.809,3.895,9.709,9.709c-0.614,3.248-3.233,5.867-6.481,6.481C182.698,134.928,177.704,129.933,178.803,124.12z
	 M108.035,174.743c-0.954,0-1.727-0.773-1.727-1.727v-16.3h-1.73v79.1h97.546l11.671,11.672
	c10.98-14.036,25.356-30.34,25.622-30.453c9.171-3.918,21.677-6.82,35.178-8.47c-1.468-3.387-2.702-7.554-3.706-12.428
	c-0.008-0.103-0.024-0.573-0.045-1.323c-0.014-0.47-0.029-1.061-0.047-1.733c-0.037,0.272-0.095,0.534-0.171,0.791
	c-0.664,2.254-2.725,3.91-5.195,3.91c-2.093,0-3.889-1.195-4.798-2.928c-1.118-0.62-2.016-1.9-2.466-3.538
	c-0.254,0.031-0.509,0.058-0.774,0.046c-2.541-0.112-4.443-2.41-4.443-4.953v-11.564c0-2.543,1.903-4.841,4.443-4.953
	c0.265-0.012,0.52,0.015,0.774,0.046c0.449-1.638,1.347-2.919,2.466-3.538c0.12-0.229,0.246-0.453,0.396-0.662
	c0.534-3.52,1.458-6.882,2.733-10.009c-1.582-2.228-3.071-4.846-4.446-7.917c-2.801-6.259,0.857-1.642,2.625-4.71
	c-2.691-3.476-1.564-11.661-0.024-12.25s0.011,4.359,11.523,3.492c0.578-0.044-2.485-5.33,0.651-4.449
	c9.027,2.538,8.994-1.713,20.591,0.222c-2.817-2.149-1.869-7.89,0.256-5.907c6.778,6.328,17.7-2.667,26.52,8.022
	c16.154,1.387,20.143,12.503,20.369,22.527c1.487,3.401,2.563,7.091,3.154,10.979c0.151,0.208,0.276,0.432,0.396,0.662
	c1.118,0.62,2.016,1.9,2.466,3.538c0.254-0.031,0.509-0.057,0.774-0.046c2.541,0.112,4.443,2.41,4.443,4.953v11.564
	c0,2.543-1.903,4.841-4.443,4.953c-0.265,0.012-0.52-0.015-0.774-0.046c-0.449,1.638-1.347,2.918-2.466,3.538
	c-0.91,1.733-2.705,2.928-4.798,2.928c-2.656,0-4.86-1.906-5.337-4.423c-0.063-0.33-0.102-0.668-0.102-1.016v-0.607
	c-0.02,0.711-0.038,1.355-0.055,1.92c-0.042,1.43-0.071,2.348-0.082,2.483c-1.002,4.868-2.234,9.03-3.7,12.415
	c13.544,1.647,26.094,4.555,35.291,8.484c0.266,0.114,5.43,5.528,9.579,10.523c8.071-8.072,13.883-13.883,15.157-15.157v-47.142
	L309.005,82.93c-0.356,0-42.119,0-43.267,0c-13.078,0-23.679-10.602-23.679-23.679c0-4.781,1.008-8.636,2.586-11.762l-2.942,0.679
	l-0.956-4.032l6.792-1.567l0.1,0.475c6.639-7.606,16.836-8.687,16.836-9.051c0-4.91,1.106-9.56,3.077-13.721
	c-29.671,3.648-57.942,11.813-84.108,23.788h3.707c4.864,0,8.807,3.943,8.807,8.807v0c0,1.319-0.298,2.566-0.818,3.689h9.625
	c0.226,0,0.448,0.017,0.671,0.034l-0.489-1.248c2.168-0.833,4.308-1.747,6.5-2.514l1.411,3.896
	c-1.113,0.389-2.211,0.817-3.307,1.252c2.418,1.57,4.021,4.289,4.021,7.387v0c0,4.864-3.943,8.807-8.807,8.807h-30.131
	c-0.511,0.295-1.024,0.587-1.535,0.881L172.6,74.17h-40.226c-3.648,2.693-7.229,5.47-10.742,8.328v13.829h8.083
	c1.17,0,2.199,0.562,2.864,1.421c0.909-0.732,1.832-1.449,2.751-2.169l2.587,3.237c-1.544,1.209-3.084,2.423-4.567,3.706v5.522h16.3
	c0.954,0,1.727,0.773,1.727,1.727v1.053c0,0.954-0.773,1.727-1.727,1.727h-16.3v6.309h16.3c0.954,0,1.727,0.773,1.727,1.727v1.053
	c0,0.954-0.773,1.727-1.727,1.727h-16.3v6.309h16.3c0.954,0,1.727,0.773,1.727,1.727v1.054c0,0.954-0.773,1.727-1.727,1.727h-16.3
	v6.309h16.3c0.954,0,1.727,0.773,1.727,1.727v1.053c0,0.954-0.773,1.727-1.727,1.727h-16.3v8.083c0,2.007-1.627,3.635-3.635,3.635
	h-8.083v16.3c0,0.954-0.773,1.727-1.727,1.727h-1.053c-0.954,0-1.727-0.773-1.727-1.727v-16.3h-6.31v16.3
	c0,0.954-0.773,1.727-1.727,1.727H108.035z M379.79,190.426v-16.14h4.849v17.088h4.445l-7.018,7.018l-7.018-7.966H379.79z
	 M142.266,95.397l-2.519-3.29c0.919-0.71,5.593-4.156,5.593-4.156l2.433,3.354C147.774,91.305,143.171,94.698,142.266,95.397z
	 M235.278,45.428l1.041,4.011l-6.601,1.875l-1.146-3.982L235.278,45.428z M223.251,48.843l1.228,3.958l-6.503,2.191l-1.331-3.924
	L223.251,48.843z M205.303,121.772l2.736-2.736c0.741-0.741,1.943-0.741,2.684,0l2.268,2.268c1.108-0.612,2.297-1.087,3.551-1.411
	v-3.133c0-1.048,0.85-1.898,1.898-1.898h3.869c1.048,0,1.898,0.85,1.898,1.898v3.098c1.291,0.328,2.516,0.833,3.658,1.475
	l2.067-2.067c0.741-0.741,1.943-0.741,2.684,0l2.736,2.736c0.741,0.741,0.741,1.943,0,2.684l-1.944,1.944
	c0.742,1.195,1.314,2.5,1.7,3.876h2.52c1.048,0,1.898,0.85,1.898,1.898v3.869c0,1.048-0.85,1.898-1.898,1.898h-2.356
	c-0.348,1.5-0.915,2.912-1.668,4.207l1.518,1.518c0.741,0.741,0.741,1.943,0,2.684l-2.736,2.736c-0.741,0.741-1.943,0.741-2.684,0
	l-1.479-1.479c-1.329,0.795-2.79,1.386-4.341,1.751v2.004c0,1.048-0.85,1.898-1.898,1.898h-3.869c-1.048,0-1.898-0.85-1.898-1.898
	v-2.147c-1.498-0.417-2.907-1.06-4.188-1.895l-1.536,1.536c-0.741,0.741-1.943,0.741-2.684,0l-2.736-2.736
	c-0.741-0.741-0.741-1.943,0-2.684l1.768-1.768c-0.672-1.26-1.163-2.622-1.454-4.052h-2.589c-1.048,0-1.898-0.85-1.898-1.898v-3.869
	c0-1.048,0.85-1.898,1.898-1.898h2.955c0.397-1.288,0.948-2.506,1.651-3.624l-2.1-2.1
	C204.562,123.715,204.562,122.513,205.303,121.772z M170.425,123.518c0-0.887,0.719-1.605,1.605-1.605h2.5
	c0.336-1.089,0.803-2.12,1.397-3.066l-1.777-1.777c-0.627-0.627-0.627-1.644,0-2.27l2.314-2.314c0.627-0.627,1.643-0.627,2.27,0
	l1.919,1.919c0.937-0.518,1.943-0.92,3.004-1.193v-2.651c0-0.887,0.719-1.605,1.605-1.605h3.273c0.886,0,1.605,0.719,1.605,1.605
	v2.62c1.092,0.277,2.129,0.704,3.094,1.248l1.748-1.748c0.627-0.627,1.643-0.627,2.27,0l2.314,2.314c0.627,0.627,0.627,1.644,0,2.27
	l-1.644,1.644c0.628,1.011,1.111,2.115,1.438,3.279h2.131c0.887,0,1.605,0.719,1.605,1.605v3.273c0,0.887-0.719,1.605-1.605,1.605
	h-1.993c-0.295,1.269-0.774,2.464-1.411,3.559l1.284,1.284c0.627,0.627,0.627,1.643,0,2.27l-2.314,2.314
	c-0.627,0.627-1.643,0.627-2.27,0l-1.251-1.251c-1.124,0.673-2.36,1.173-3.672,1.481v1.695c0,0.887-0.719,1.605-1.605,1.605h-3.273
	c-0.887,0-1.605-0.719-1.605-1.605v-1.817c-1.268-0.352-2.46-0.896-3.543-1.603l-1.299,1.299c-0.627,0.627-1.643,0.627-2.27,0
	l-2.314-2.314c-0.627-0.627-0.627-1.643,0-2.27l1.495-1.495c-0.569-1.066-0.984-2.218-1.23-3.428h-2.19
	c-0.887,0-1.605-0.719-1.605-1.605V123.518z M166.188,74.244l2.112,3.565c-0.986,0.579-5.851,3.582-5.851,3.582l-2.204-3.509
	C160.245,77.882,165.187,74.832,166.188,74.244z M149.815,84.769l5.773-3.902l2.276,3.463l-5.685,3.841L149.815,84.769z
	 M139.884,187.382h47.109v34.456h-47.109V187.382z M117.125,96.326h-6.31v-4.582c2.075-1.865,4.181-3.695,6.31-5.5V96.326z
	 M106.309,96.326h-0.472c0.157-0.147,0.315-0.292,0.472-0.439V96.326z M72.959,140.492h-5.404c1.493-2.123,3.008-4.229,4.556-6.309
	h0.848V140.492z M455.815,247.146v16.905c0,1.173,0.956,2.13,2.13,2.13h54.529l6.31,3.744l-3.994-6.138v-16.641
	c0-1.174-0.956-2.13-2.13-2.13h-54.714C456.771,245.016,455.815,245.973,455.815,247.146z M497.718,252.609
	c1.782,0,3.227,1.445,3.227,3.227c0,1.783-1.445,3.227-3.227,3.227c-1.783,0-3.227-1.444-3.227-3.227
	C494.491,254.054,495.935,252.609,497.718,252.609z M484.319,252.609c1.783,0,3.228,1.445,3.228,3.227
	c0,1.783-1.445,3.227-3.228,3.227c-1.783,0-3.227-1.444-3.227-3.227C481.091,254.054,482.535,252.609,484.319,252.609z
	 M470.92,252.609c1.782,0,3.227,1.445,3.227,3.227c0,1.783-1.445,3.227-3.227,3.227c-1.783,0-3.228-1.444-3.228-3.227
	C467.692,254.054,469.137,252.609,470.92,252.609z M501.93,200.777h-44.727l-57.045,57.045
	c8.133,10.809,14.507,20.115,14.122,22.095c-0.237,1.222-2.551,3.872-5.978,7.098c3.349,7.59,5.989,15.566,7.397,23.632l20.5-20.5
	h98.986v-31.383c0-2.217,1.798-4.015,4.015-4.015h46.943c-0.683-3.821-1.461-7.608-2.294-11.374h-36.081
	c-4.864,0-8.807-3.943-8.807-8.807c0-0.477,0.049-0.941,0.121-1.398h-25.749c-4.864,0-8.807-3.943-8.807-8.807v0
	c0-4.864,3.943-8.807,8.807-8.807h38.665c-0.529-1.469-1.104-3.058-1.307-3.587l3.875-1.468c0.275,0.718,1.224,3.353,1.835,5.055
	h19.807c-1.029-3.119-2.099-6.219-3.231-9.289h-22.597l-1.673,0.674c-0.09-0.224-0.177-0.449-0.265-0.674h-7.298
	c-4.864,0-8.807-3.943-8.807-8.807c0-4.864,3.943-8.807,8.807-8.807h1.166l2.313-1.134c0.203,0.373,0.389,0.754,0.577,1.134h20.603
	c-6.51-14.588-14.201-28.53-22.947-41.714v4.098c0,2.048-1.663,3.706-3.711,3.701l-37.216-0.101V200.777z M565.336,246.438
	l1.482,6.809l-4.065,0.804l-1.46-6.704L565.336,246.438z M542.103,182.595l-3.683,1.9c-1.067-2.023-2.03-4.102-3.182-6.079
	l3.632-1.996C540.039,178.43,541.019,180.541,542.103,182.595z M536.134,171.662l-3.59,2.07c-1.154-1.975-2.249-3.986-3.452-5.931
	l3.535-2.162C533.849,167.614,534.961,169.656,536.134,171.662z M525.817,155.05c1.286,1.935,2.517,3.906,3.778,5.857l-3.489,2.235
	c-1.242-1.921-2.453-3.863-3.719-5.767L525.817,155.05z M512.659,242.459c2.584,0,4.687,2.103,4.687,4.688v15.882l9.552,14.684
	l-15.128-8.973h-53.826c-2.584,0-4.687-2.103-4.687-4.688v-16.905c0-2.584,2.103-4.688,4.687-4.688H512.659z M465.115,185.659
	c4.604-4.604,4.599-12.064-0.006-16.668c-4.604-4.604-12.064-4.61-16.668-0.006c-4.61,4.61-4.61,12.075-0.006,16.68
	C453.04,190.269,460.505,190.269,465.115,185.659z M458.595,169.262L458.595,169.262c0.228-0.955,1.269-1.48,2.165-1.081
	c1.521,0.677,2.862,1.722,3.892,3.052c0.602,0.777,0.342,1.915-0.533,2.364c-0.656,0.337-1.481,0.191-1.928-0.395
	c-0.722-0.946-1.671-1.687-2.749-2.159C458.765,170.746,458.424,169.981,458.595,169.262z M412.457,112.118
	c0-4.217-3.418-7.635-7.635-7.635c-4.216,0-7.635,3.419-7.635,7.635c0,4.217,3.419,7.635,7.635,7.635
	C409.038,119.753,412.457,116.335,412.457,112.118z M399.277,112.118c0-3.062,2.483-5.545,5.544-5.545
	c3.062,0,5.545,2.482,5.545,5.545c0,3.062-2.482,5.544-5.545,5.544C401.759,117.662,399.277,115.18,399.277,112.118z
	 M210.803,132.79c0.726-3.839,3.822-6.935,7.661-7.661c6.872-1.3,12.777,4.605,11.477,11.477c-0.726,3.839-3.822,6.935-7.661,7.661
	C215.408,145.566,209.503,139.662,210.803,132.79z M144.556,217.166h37.766v-25.112h-37.766V217.166z M180.973,216.282h-25.399
	l13.225-19.268L180.973,216.282z M149.793,194.664c1.613,0,2.92,1.307,2.92,2.92c0,1.613-1.307,2.92-2.92,2.92
	c-1.613,0-2.92-1.307-2.92-2.92C146.874,195.971,148.181,194.664,149.793,194.664z M154.876,202.222l4.448,7.027l-4.833,7.034
	h-9.281L154.876,202.222z M152.32,369.901c0,4.855-3.459,8.915-8.041,9.849v-19.699C148.861,360.986,152.32,365.047,152.32,369.901z
	 M474.288,327.511c1.915-0.57,3.925-0.917,6.002-1.006v15.829h-10.136C471.416,335.087,473.493,329.486,474.288,327.511z
	 M493.458,359.451h-11.005v-14.955h10.639C493.75,349.089,494.03,354.217,493.458,359.451z M492.748,342.334h-10.296v-15.829
	c2.141,0.092,4.213,0.455,6.182,1.057C489.442,329.576,491.495,335.141,492.748,342.334z M469.731,361.613h10.559v14.567
	c-2.074-0.089-4.082-0.435-5.995-1.004C471.863,370.822,470.444,366.205,469.731,361.613z M504.54,342.334h-9.518
	c-1.018-5.98-2.605-10.891-3.667-13.757C497.371,331.226,502.143,336.189,504.54,342.334z M43.848,285.332v-21.389h95.658
	l50.277,50.276c1.184-9.276,4.087-18.495,7.93-27.204c-3.427-3.226-5.741-5.876-5.978-7.098
	c-0.488-2.512,9.884-16.796,20.948-31.004l-11.301-11.302h-98.598v-80.895h-2.784v16.3c0,0.954-0.773,1.727-1.727,1.727h-1.053
	c-0.954,0-1.727-0.773-1.727-1.727v-16.3h-6.309v16.3c0,0.954-0.773,1.727-1.727,1.727h-1.053c-0.954,0-1.727-0.773-1.727-1.727
	v-16.3H84.18l-0.878,1.24l-1.84-1.24h-4.869c-2.007,0-3.635-1.627-3.635-3.635v-8.083h-8.525
	c-10.232,15.157-19.055,31.344-26.287,48.369h20.57l0.09-0.198l0.429,0.198h7.376c4.864,0,8.807,3.943,8.807,8.807
	c0,1.117-0.216,2.181-0.595,3.164h8.364c4.864,0,8.807,3.943,8.807,8.807s-3.943,8.807-8.807,8.807H51.523l-0.436,1.29l-3.943-1.274
	l0.005-0.015h-19.67c-1.195,3.983-2.314,7.998-3.339,12.051h19.645l-0.196-0.053l1.904-6.705l3.969,1.193l-1.581,5.566h15.937
	c4.864,0,8.807,3.943,8.807,8.807c0,4.864-3.943,8.807-8.807,8.807h-24l3.637,0.73l-1.206,6.756l-4.083-0.71l1.21-6.776H20.279
	c-2.197,11.765-3.676,23.78-4.393,36.002c3.74-2.043,8.004-3.228,12.529-3.248L43.848,285.332z M64.859,189.968l-3.726-1.814
	l3.177-6.204l3.677,1.911L64.859,189.968z M70.538,178.951l-3.636-1.987l3.474-6.043l3.583,2.081L70.538,178.951z M76.659,168.318
	l-3.54-2.154l3.761-5.868l3.483,2.245L76.659,168.318z M37.198,264.841l4.097,0.625l-0.864,6.808l-4.111-0.519L37.198,264.841z
	 M35.627,277.202l4.121,0.435c-0.278,2.27-0.375,4.559-0.572,6.838l-4.131-0.328C35.245,281.832,35.345,279.508,35.627,277.202z
	 M467.508,361.613c0.635,4.166,1.817,8.379,3.777,12.449c-5.552-2.474-10.032-6.922-12.55-12.449H467.508z M495.357,344.496h9.913
	c0.625,2.177,0.966,4.472,0.966,6.847c0,2.839-0.485,5.565-1.365,8.108h-9.185C496.257,354.203,495.998,349.091,495.357,344.496z
	 M469.811,344.496h10.479v14.955h-10.846C468.872,354.217,469.152,349.089,469.811,344.496z M467.226,359.451h-9.356
	c-0.88-2.543-1.364-5.27-1.364-8.108c0-2.375,0.342-4.67,0.966-6.847h10.076C466.908,349.091,466.656,354.203,467.226,359.451z
	 M490.069,498.899l-5.045,4.81l-2.805-3.05l4.259-4.06h-10.621c-1.143,0-2.07-0.926-2.07-2.069v-29.464h-21.013L436.27,448.56
	h-4.528c-6.534,0-12.238,4.93-12.66,11.45c-0.463,7.144,5.195,13.083,12.24,13.083h11.577c7.768,0,14.431,6.077,14.574,13.844
	c0.145,7.913-6.226,14.373-14.106,14.373h-54.842c-4.88,0-9.136,3.761-9.283,8.639c-0.151,5.048,3.895,9.187,8.909,9.187h6.298
	c7.768,0,14.432,6.077,14.574,13.844c0.145,7.913-6.226,14.372-14.106,14.372h-61.811l-3.454,5.362h21.221
	c4.335,0,7.861,4.203,7.861,9.369v13.281c0,5.166-3.526,9.368-7.861,9.368h-95.73c-4.335,0-7.861-4.202-7.861-9.368v-6.515
	l-6.604-1.524l0.958-4.032l5.646,1.304v-2.514c0-5.166,3.526-9.369,7.861-9.369h21.221l-3.454-5.362h-28.871
	c-7.579,0-14.159-5.776-14.56-13.344c-0.022-0.425-0.026-0.846-0.012-1.262c0.205-5.899-4.361-10.849-10.264-10.849l-27.159,0
	l4.205,3.655c1.051-0.865,2.44-1.309,3.891-1.084c2.701,0.419,4.551,2.948,4.132,5.649c-0.419,2.701-2.948,4.551-5.649,4.132
	c-2.701-0.419-4.551-2.948-4.132-5.649c0.102-0.655,0.332-1.257,0.654-1.792l-5.651-4.912h-17.288
	c-7.768,0-14.432-6.077-14.574-13.844c-0.145-7.913,6.226-14.372,14.106-14.372h47.86c4.668,0,8.453-3.784,8.453-8.453
	c0-4.668-3.784-8.453-8.453-8.453h-10.191c-11.115,6.013-20.835,10.995-22.658,10.903c-1.606-0.081,0.322-4.772,3.461-10.903h-40.94
	c-7.768,0-14.432-6.077-14.574-13.844c-0.145-7.913,6.226-14.372,14.106-14.372h25.132c6.779,0,12.697-5.115,13.135-11.88
	c0.48-7.412-5.39-13.574-12.699-13.574h-32.267v18.181l-33.392,33.392v10.863c0.661,0.684,1.326,1.363,1.972,2.06l-1.972,1.865
	v20.507c0,2.354-0.463,4.597-1.281,6.661c1.739,1.613,3.497,3.205,5.275,4.776h27.553c1.009,0,1.975,0.178,2.878,0.491
	c-1.359-1.006-2.95-2.188-3.446-2.573l2.52-3.29c0.904,0.7,5.505,4.094,5.505,4.094l-2.199,3.031
	c2.15,1.606,3.549,4.163,3.549,7.053c0,4.864-3.943,8.807-8.807,8.807h-5.531c3.338,2.412,6.732,4.752,10.176,7.023h37.428
	l1.558-3.857c2.047,1.019,4.042,2.148,6.15,3.042l-0.385,0.815h5.838c4.864,0,8.807,3.943,8.807,8.807
	c0,4.864-3.943,8.807-8.807,8.807h-19.918c38.411,19.014,81.668,29.72,127.432,29.72c38.769,0,75.738-7.688,109.49-21.594h-24.754
	c-4.61,0-8.386-3.543-8.769-8.054c-0.739,0.208-1.479,0.415-2.217,0.628l-1.134-3.986c1.393-0.402,2.789-0.794,4.182-1.192
	c1.419-2.961,4.435-5.01,7.937-5.01h11.929l-0.645-1.658l6.384-2.517l1.603,3.821l-0.896,0.353h41.922
	c8.376-4.901,16.479-10.214,24.288-15.909h-32.097c-0.618,0-1.22-0.065-1.802-0.186l-3.974,2.285l-2.028-3.613l1.683-0.968
	c-1.654-1.601-2.686-3.84-2.686-6.324v0c0-4.864,3.943-8.807,8.807-8.807h6.58c-0.631-1.214-0.993-2.591-0.993-4.053
	c0-4.864,3.943-8.807,8.807-8.807h19.475l3.986-3.453l2.741,3.108l-0.399,0.346h27.283c3.589-3.636,7.078-7.37,10.471-11.192
	h-30.343L490.069,498.899z M116.531,499.391c-1.661-1.624-3.414-3.156-4.98-4.875l2.951-2.909c1.541,1.694,3.269,3.2,4.904,4.799
	L116.531,499.391z M125.728,507.853c-1.748-1.53-3.545-3.006-5.194-4.646l2.813-3.043c1.623,1.615,3.393,3.067,5.114,4.574
	L125.728,507.853z M135.273,515.857c-1.831-1.43-3.668-2.854-5.396-4.409l2.67-3.169c1.701,1.532,3.51,2.933,5.313,4.341
	L135.273,515.857z M155.564,530.596l-5.773-3.903l2.365-3.403l5.684,3.843L155.564,530.596z M166.127,537.2
	c-1.001-0.589-5.941-3.641-5.941-3.641l2.205-3.509c0,0,4.864,3.005,5.85,3.585L166.127,537.2z M177.1,543.368
	c-2.091-1.018-4.085-2.212-6.101-3.367l2.038-3.608c1.985,1.137,3.948,2.314,6.007,3.315L177.1,543.368z M211.378,558.628
	c-2.19-0.774-4.331-1.682-6.499-2.517l1.514-3.858c2.134,0.822,4.242,1.718,6.398,2.479L211.378,558.628z M223.223,562.628
	l-6.605-2.226l1.331-3.924l6.502,2.193L223.223,562.628z M235.21,566.032l-6.706-1.904l1.147-3.982l6.601,1.875L235.21,566.032z
	 M364.699,567.49l-0.947-4.034c2.222-0.542,4.474-0.967,6.671-1.603l1.052,4.008C369.242,566.506,366.956,566.941,364.699,567.49z
	 M412.032,551.593l-1.682-3.787l6.253-2.827l1.779,3.742L412.032,551.593z M423.415,546.22l-1.858-3.704l6.108-3.128l1.953,3.655
	L423.415,546.22z M493.171,361.613c-0.71,4.573-2.122,9.17-4.535,13.51c-1.969,0.603-4.042,0.965-6.183,1.058v-14.567H493.171z
	 M495.401,361.613h8.607c-2.488,5.461-6.892,9.868-12.351,12.359C493.59,369.929,494.77,365.749,495.401,361.613z M519.136,455.908
	h-36.67c-2.507,0-4.54,2.033-4.54,4.54v27.472c0,2.507,2.032,4.54,4.54,4.54h36.67c2.507,0,4.54-2.033,4.54-4.54v-27.472
	C523.676,457.94,521.643,455.908,519.136,455.908z M493.114,484.36v-20.354l19.885,10.177L493.114,484.36z M527.853,467.217
	l19.227-6.025v26.861l-19.262-5.962L527.853,467.217z M285.569,566.52c1.605,0,2.906,1.301,2.906,2.906
	c0,1.605-1.301,2.906-2.906,2.906c-1.605,0-2.906-1.301-2.906-2.906C282.663,567.821,283.964,566.52,285.569,566.52z
	 M297.194,566.52c1.605,0,2.906,1.301,2.906,2.906c0,1.605-1.301,2.906-2.906,2.906s-2.906-1.301-2.906-2.906
	C294.288,567.821,295.589,566.52,297.194,566.52z M320.445,566.52c1.605,0,2.906,1.301,2.906,2.906c0,1.605-1.301,2.906-2.906,2.906
	s-2.906-1.301-2.906-2.906C317.538,567.821,318.84,566.52,320.445,566.52z M343.695,572.333c-1.605,0-2.906-1.301-2.906-2.906
	c0-1.605,1.301-2.906,2.906-2.906c1.605,0,2.906,1.301,2.906,2.906C346.601,571.032,345.3,572.333,343.695,572.333z M20.977,309.906
	l-4.985,0.013c-2.417,0.006-4.368-2.001-4.267-4.441c0.096-2.326,2.195-4.073,4.522-4.079l4.708-0.012
	c0.023,0,0.041-0.019,0.041-0.041l-0.013-4.985c-0.006-2.417,2-4.368,4.441-4.267c2.326,0.096,4.073,2.195,4.079,4.522l0.012,4.707
	c0,0.023,0.019,0.041,0.041,0.041l4.708-0.012c2.327-0.006,4.435,1.73,4.544,4.055c0.114,2.44-1.827,4.457-4.244,4.463l-4.985,0.013
	c-0.023,0-0.041,0.018-0.041,0.041l0.013,4.985c0.006,2.416-2.001,4.368-4.441,4.267c-2.326-0.096-4.073-2.195-4.079-4.522
	l-0.012-4.708C21.018,309.925,21,309.906,20.977,309.906z M71.201,296.266c0.007,2.564-2.066,4.647-4.63,4.654
	c-2.564,0.007-4.647-2.066-4.654-4.63c-0.007-2.564,2.066-4.647,4.63-4.654C69.111,291.63,71.194,293.703,71.201,296.266z
	 M66.596,310.383c2.564-0.007,4.647,2.066,4.654,4.63c0.007,2.564-2.066,4.647-4.629,4.654c-2.564,0.007-4.647-2.066-4.654-4.63
	C61.96,312.473,64.033,310.389,66.596,310.383z M57.223,310.318c-2.564,0.007-4.647-2.066-4.654-4.63
	c-0.007-2.564,2.066-4.647,4.63-4.654c2.564-0.007,4.647,2.066,4.654,4.63C61.86,308.228,59.787,310.311,57.223,310.318z
	 M71.315,305.639c-0.007-2.564,2.066-4.647,4.63-4.654c2.564-0.007,4.647,2.066,4.654,4.629c0.007,2.564-2.066,4.647-4.63,4.654
	C73.406,310.276,71.322,308.203,71.315,305.639z M90.216,134.729v-11.337c0-0.668,0.541-1.209,1.209-1.209
	c0.667,0,1.209,0.541,1.209,1.209v8.575c0,2.67,2.165,4.835,4.835,4.835h11.219c0.741,0,1.351,0.585,1.38,1.326
	c0.031,0.784-0.596,1.437-1.38,1.437H95.051C92.381,139.563,90.216,137.399,90.216,134.729z M515.935,126.644
	c0,0,19.866-9.9,20.405-10.262v22.94L515.935,126.644z M535.752,148.227l-70.875-0.205c0.518-1.34,1.466-2.493,2.741-3.275
	l24.206-14.672c2.633,1.328,5.586,2.033,8.593,2.042c2.932,0,5.869-0.688,8.494-1.99l24.119,14.81
	C534.299,145.725,535.241,146.882,535.752,148.227z M484.82,126.552l-20.24,12.414V116.24
	C465.086,116.578,484.82,126.552,484.82,126.552z M464.564,103.975l71.759,0.208c-0.009,3.138-1.761,5.955-4.575,7.349
	l-25.732,12.756c-3.404,1.687-7.874,1.672-11.264-0.033l-25.658-12.905C466.29,109.939,464.554,107.113,464.564,103.975z
	 M491.666,435.597c-4.451,0-4.444-6.906,0-6.906C496.117,428.691,496.11,435.597,491.666,435.597z M450.458,435.597
	c-4.451,0-4.444-6.906,0-6.906c8.791,0,17.582,0,26.373,0c4.451,0,4.444,6.906,0,6.906
	C468.04,435.597,459.249,435.597,450.458,435.597z M129.86,405.614c4.451,0,4.444,6.906,0,6.906c-4.121,0-8.242,0-12.362,0
	c-4.451,0-4.444-6.906,0-6.906C121.619,405.614,125.74,405.614,129.86,405.614z M104.311,405.614c4.451,0,4.444,6.906,0,6.906
	c-5.22,0-10.439,0-15.659,0c-4.451,0-4.444-6.906,0-6.906C93.872,405.614,99.092,405.614,104.311,405.614z M187.551,458.918
	c4.451,0,4.444,6.906,0,6.906c-9.34,0-18.681,0-28.021,0c-4.451,0-4.444-6.906,0-6.906
	C168.871,458.918,178.211,458.918,187.551,458.918z M146.344,458.918c4.451,0,4.444,6.906,0,6.906
	C141.892,465.824,141.9,458.918,146.344,458.918z M398.536,535.32c-4.451,0-4.444-6.906,0-6.906
	C402.987,528.414,402.98,535.32,398.536,535.32z M368.042,528.414c6.044,0,12.088,0,18.132,0c4.451,0,4.444,6.906,0,6.906
	c-6.044,0-12.088,0-18.132,0C363.591,535.32,363.598,528.414,368.042,528.414z M357.328,528.414c4.451,0,4.444,6.906,0,6.906
	C352.877,535.32,352.884,528.414,357.328,528.414z"></path>
</svg>